<?xml version="1.0" encoding="utf-8"?>
<svg xmlns="http://www.w3.org/2000/svg" xmlns:xlink="http://www.w3.org/1999/xlink" width="600" height="400" viewBox="0 0 2400 1600">
<defs>
  <clipPath id="clip420">
    <rect x="0" y="0" width="2400" height="1600"/>
  </clipPath>
</defs>
<path clip-path="url(#clip420)" d="
M0 1600 L2400 1600 L2400 0 L0 0  Z
  " fill="#ffffff" fill-rule="evenodd" fill-opacity="1"/>
<defs>
  <clipPath id="clip421">
    <rect x="480" y="0" width="1681" height="1600"/>
  </clipPath>
</defs>
<path clip-path="url(#clip420)" d="
M172.953 1443.09 L2352.76 1443.09 L2352.76 47.2441 L172.953 47.2441  Z
  " fill="#ffffff" fill-rule="evenodd" fill-opacity="1"/>
<defs>
  <clipPath id="clip422">
    <rect x="172" y="47" width="2181" height="1397"/>
  </clipPath>
</defs>
<polyline clip-path="url(#clip422)" style="stroke:#000000; stroke-width:2; stroke-opacity:0.1; fill:none" points="
  233.603,1443.09 233.603,47.2441 
  "/>
<polyline clip-path="url(#clip422)" style="stroke:#000000; stroke-width:2; stroke-opacity:0.1; fill:none" points="
  754.743,1443.09 754.743,47.2441 
  "/>
<polyline clip-path="url(#clip422)" style="stroke:#000000; stroke-width:2; stroke-opacity:0.1; fill:none" points="
  1275.88,1443.09 1275.88,47.2441 
  "/>
<polyline clip-path="url(#clip422)" style="stroke:#000000; stroke-width:2; stroke-opacity:0.1; fill:none" points="
  1797.02,1443.09 1797.02,47.2441 
  "/>
<polyline clip-path="url(#clip422)" style="stroke:#000000; stroke-width:2; stroke-opacity:0.1; fill:none" points="
  2318.16,1443.09 2318.16,47.2441 
  "/>
<polyline clip-path="url(#clip422)" style="stroke:#000000; stroke-width:2; stroke-opacity:0.1; fill:none" points="
  172.953,1361.64 2352.76,1361.64 
  "/>
<polyline clip-path="url(#clip422)" style="stroke:#000000; stroke-width:2; stroke-opacity:0.1; fill:none" points="
  172.953,1118.65 2352.76,1118.65 
  "/>
<polyline clip-path="url(#clip422)" style="stroke:#000000; stroke-width:2; stroke-opacity:0.1; fill:none" points="
  172.953,875.652 2352.76,875.652 
  "/>
<polyline clip-path="url(#clip422)" style="stroke:#000000; stroke-width:2; stroke-opacity:0.1; fill:none" points="
  172.953,632.658 2352.76,632.658 
  "/>
<polyline clip-path="url(#clip422)" style="stroke:#000000; stroke-width:2; stroke-opacity:0.1; fill:none" points="
  172.953,389.663 2352.76,389.663 
  "/>
<polyline clip-path="url(#clip422)" style="stroke:#000000; stroke-width:2; stroke-opacity:0.1; fill:none" points="
  172.953,146.669 2352.76,146.669 
  "/>
<polyline clip-path="url(#clip420)" style="stroke:#000000; stroke-width:4; stroke-opacity:1; fill:none" points="
  172.953,1443.09 2352.76,1443.09 
  "/>
<polyline clip-path="url(#clip420)" style="stroke:#000000; stroke-width:4; stroke-opacity:1; fill:none" points="
  172.953,1443.09 172.953,47.2441 
  "/>
<polyline clip-path="url(#clip420)" style="stroke:#000000; stroke-width:4; stroke-opacity:1; fill:none" points="
  233.603,1443.09 233.603,1426.34 
  "/>
<polyline clip-path="url(#clip420)" style="stroke:#000000; stroke-width:4; stroke-opacity:1; fill:none" points="
  754.743,1443.09 754.743,1426.34 
  "/>
<polyline clip-path="url(#clip420)" style="stroke:#000000; stroke-width:4; stroke-opacity:1; fill:none" points="
  1275.88,1443.09 1275.88,1426.34 
  "/>
<polyline clip-path="url(#clip420)" style="stroke:#000000; stroke-width:4; stroke-opacity:1; fill:none" points="
  1797.02,1443.09 1797.02,1426.34 
  "/>
<polyline clip-path="url(#clip420)" style="stroke:#000000; stroke-width:4; stroke-opacity:1; fill:none" points="
  2318.16,1443.09 2318.16,1426.34 
  "/>
<polyline clip-path="url(#clip420)" style="stroke:#000000; stroke-width:4; stroke-opacity:1; fill:none" points="
  172.953,1361.64 199.111,1361.64 
  "/>
<polyline clip-path="url(#clip420)" style="stroke:#000000; stroke-width:4; stroke-opacity:1; fill:none" points="
  172.953,1118.65 199.111,1118.65 
  "/>
<polyline clip-path="url(#clip420)" style="stroke:#000000; stroke-width:4; stroke-opacity:1; fill:none" points="
  172.953,875.652 199.111,875.652 
  "/>
<polyline clip-path="url(#clip420)" style="stroke:#000000; stroke-width:4; stroke-opacity:1; fill:none" points="
  172.953,632.658 199.111,632.658 
  "/>
<polyline clip-path="url(#clip420)" style="stroke:#000000; stroke-width:4; stroke-opacity:1; fill:none" points="
  172.953,389.663 199.111,389.663 
  "/>
<polyline clip-path="url(#clip420)" style="stroke:#000000; stroke-width:4; stroke-opacity:1; fill:none" points="
  172.953,146.669 199.111,146.669 
  "/>
<path clip-path="url(#clip420)" d="M 0 0 M233.603 1465.08 Q229.992 1465.08 228.164 1468.64 Q226.358 1472.18 226.358 1479.31 Q226.358 1486.42 228.164 1489.98 Q229.992 1493.52 233.603 1493.52 Q237.238 1493.52 239.043 1489.98 Q240.872 1486.42 240.872 1479.31 Q240.872 1472.18 239.043 1468.64 Q237.238 1465.08 233.603 1465.08 M233.603 1461.37 Q239.414 1461.37 242.469 1465.98 Q245.548 1470.56 245.548 1479.31 Q245.548 1488.04 242.469 1492.65 Q239.414 1497.23 233.603 1497.23 Q227.793 1497.23 224.715 1492.65 Q221.659 1488.04 221.659 1479.31 Q221.659 1470.56 224.715 1465.98 Q227.793 1461.37 233.603 1461.37 Z" fill="#000000" fill-rule="evenodd" fill-opacity="1" /><path clip-path="url(#clip420)" d="M 0 0 M718.007 1462 L736.364 1462 L736.364 1465.93 L722.29 1465.93 L722.29 1474.4 Q723.308 1474.06 724.327 1473.9 Q725.345 1473.71 726.364 1473.71 Q732.151 1473.71 735.53 1476.88 Q738.91 1480.05 738.91 1485.47 Q738.91 1491.05 735.438 1494.15 Q731.966 1497.23 725.646 1497.23 Q723.47 1497.23 721.202 1496.86 Q718.956 1496.49 716.549 1495.75 L716.549 1491.05 Q718.632 1492.18 720.855 1492.74 Q723.077 1493.29 725.554 1493.29 Q729.558 1493.29 731.896 1491.19 Q734.234 1489.08 734.234 1485.47 Q734.234 1481.86 731.896 1479.75 Q729.558 1477.65 725.554 1477.65 Q723.679 1477.65 721.804 1478.06 Q719.952 1478.48 718.007 1479.36 L718.007 1462 Z" fill="#000000" fill-rule="evenodd" fill-opacity="1" /><path clip-path="url(#clip420)" d="M 0 0 M753.979 1465.08 Q750.368 1465.08 748.54 1468.64 Q746.734 1472.18 746.734 1479.31 Q746.734 1486.42 748.54 1489.98 Q750.368 1493.52 753.979 1493.52 Q757.614 1493.52 759.419 1489.98 Q761.248 1486.42 761.248 1479.31 Q761.248 1472.18 759.419 1468.64 Q757.614 1465.08 753.979 1465.08 M753.979 1461.37 Q759.789 1461.37 762.845 1465.98 Q765.924 1470.56 765.924 1479.31 Q765.924 1488.04 762.845 1492.65 Q759.789 1497.23 753.979 1497.23 Q748.169 1497.23 745.09 1492.65 Q742.035 1488.04 742.035 1479.31 Q742.035 1470.56 745.09 1465.98 Q748.169 1461.37 753.979 1461.37 Z" fill="#000000" fill-rule="evenodd" fill-opacity="1" /><path clip-path="url(#clip420)" d="M 0 0 M780.993 1465.08 Q777.382 1465.08 775.553 1468.64 Q773.748 1472.18 773.748 1479.31 Q773.748 1486.42 775.553 1489.98 Q777.382 1493.52 780.993 1493.52 Q784.627 1493.52 786.433 1489.98 Q788.262 1486.42 788.262 1479.31 Q788.262 1472.18 786.433 1468.64 Q784.627 1465.08 780.993 1465.08 M780.993 1461.37 Q786.803 1461.37 789.859 1465.98 Q792.937 1470.56 792.937 1479.31 Q792.937 1488.04 789.859 1492.65 Q786.803 1497.23 780.993 1497.23 Q775.183 1497.23 772.104 1492.65 Q769.049 1488.04 769.049 1479.31 Q769.049 1470.56 772.104 1465.98 Q775.183 1461.37 780.993 1461.37 Z" fill="#000000" fill-rule="evenodd" fill-opacity="1" /><path clip-path="url(#clip420)" d="M 0 0 M1225.74 1492.62 L1233.38 1492.62 L1233.38 1466.26 L1225.07 1467.92 L1225.07 1463.66 L1233.34 1462 L1238.01 1462 L1238.01 1492.62 L1245.65 1492.62 L1245.65 1496.56 L1225.74 1496.56 L1225.74 1492.62 Z" fill="#000000" fill-rule="evenodd" fill-opacity="1" /><path clip-path="url(#clip420)" d="M 0 0 M1260.72 1465.08 Q1257.11 1465.08 1255.28 1468.64 Q1253.48 1472.18 1253.48 1479.31 Q1253.48 1486.42 1255.28 1489.98 Q1257.11 1493.52 1260.72 1493.52 Q1264.36 1493.52 1266.16 1489.98 Q1267.99 1486.42 1267.99 1479.31 Q1267.99 1472.18 1266.16 1468.64 Q1264.36 1465.08 1260.72 1465.08 M1260.72 1461.37 Q1266.53 1461.37 1269.59 1465.98 Q1272.67 1470.56 1272.67 1479.31 Q1272.67 1488.04 1269.59 1492.65 Q1266.53 1497.23 1260.72 1497.23 Q1254.91 1497.23 1251.83 1492.65 Q1248.78 1488.04 1248.78 1479.31 Q1248.78 1470.56 1251.83 1465.98 Q1254.91 1461.37 1260.72 1461.37 Z" fill="#000000" fill-rule="evenodd" fill-opacity="1" /><path clip-path="url(#clip420)" d="M 0 0 M1287.73 1465.08 Q1284.12 1465.08 1282.3 1468.64 Q1280.49 1472.18 1280.49 1479.31 Q1280.49 1486.42 1282.3 1489.98 Q1284.12 1493.52 1287.73 1493.52 Q1291.37 1493.52 1293.17 1489.98 Q1295 1486.42 1295 1479.31 Q1295 1472.18 1293.17 1468.64 Q1291.37 1465.08 1287.73 1465.08 M1287.73 1461.37 Q1293.54 1461.37 1296.6 1465.98 Q1299.68 1470.56 1299.68 1479.31 Q1299.68 1488.04 1296.6 1492.65 Q1293.54 1497.23 1287.73 1497.23 Q1281.92 1497.23 1278.85 1492.65 Q1275.79 1488.04 1275.79 1479.31 Q1275.79 1470.56 1278.85 1465.98 Q1281.92 1461.37 1287.73 1461.37 Z" fill="#000000" fill-rule="evenodd" fill-opacity="1" /><path clip-path="url(#clip420)" d="M 0 0 M1314.75 1465.08 Q1311.14 1465.08 1309.31 1468.64 Q1307.5 1472.18 1307.5 1479.31 Q1307.5 1486.42 1309.31 1489.98 Q1311.14 1493.52 1314.75 1493.52 Q1318.38 1493.52 1320.19 1489.98 Q1322.02 1486.42 1322.02 1479.31 Q1322.02 1472.18 1320.19 1468.64 Q1318.38 1465.08 1314.75 1465.08 M1314.75 1461.37 Q1320.56 1461.37 1323.61 1465.98 Q1326.69 1470.56 1326.69 1479.31 Q1326.69 1488.04 1323.61 1492.65 Q1320.56 1497.23 1314.75 1497.23 Q1308.94 1497.23 1305.86 1492.65 Q1302.8 1488.04 1302.8 1479.31 Q1302.8 1470.56 1305.86 1465.98 Q1308.94 1461.37 1314.75 1461.37 Z" fill="#000000" fill-rule="evenodd" fill-opacity="1" /><path clip-path="url(#clip420)" d="M 0 0 M1747.38 1492.62 L1755.02 1492.62 L1755.02 1466.26 L1746.71 1467.92 L1746.71 1463.66 L1754.97 1462 L1759.65 1462 L1759.65 1492.62 L1767.29 1492.62 L1767.29 1496.56 L1747.38 1496.56 L1747.38 1492.62 Z" fill="#000000" fill-rule="evenodd" fill-opacity="1" /><path clip-path="url(#clip420)" d="M 0 0 M1772.4 1462 L1790.76 1462 L1790.76 1465.93 L1776.69 1465.93 L1776.69 1474.4 Q1777.71 1474.06 1778.72 1473.9 Q1779.74 1473.71 1780.76 1473.71 Q1786.55 1473.71 1789.93 1476.88 Q1793.31 1480.05 1793.31 1485.47 Q1793.31 1491.05 1789.84 1494.15 Q1786.36 1497.23 1780.04 1497.23 Q1777.87 1497.23 1775.6 1496.86 Q1773.35 1496.49 1770.95 1495.75 L1770.95 1491.05 Q1773.03 1492.18 1775.25 1492.74 Q1777.47 1493.29 1779.95 1493.29 Q1783.96 1493.29 1786.29 1491.19 Q1788.63 1489.08 1788.63 1485.47 Q1788.63 1481.86 1786.29 1479.75 Q1783.96 1477.65 1779.95 1477.65 Q1778.08 1477.65 1776.2 1478.06 Q1774.35 1478.48 1772.4 1479.36 L1772.4 1462 Z" fill="#000000" fill-rule="evenodd" fill-opacity="1" /><path clip-path="url(#clip420)" d="M 0 0 M1808.38 1465.08 Q1804.77 1465.08 1802.94 1468.64 Q1801.13 1472.18 1801.13 1479.31 Q1801.13 1486.42 1802.94 1489.98 Q1804.77 1493.52 1808.38 1493.52 Q1812.01 1493.52 1813.82 1489.98 Q1815.65 1486.42 1815.65 1479.31 Q1815.65 1472.18 1813.82 1468.64 Q1812.01 1465.08 1808.38 1465.08 M1808.38 1461.37 Q1814.19 1461.37 1817.24 1465.98 Q1820.32 1470.56 1820.32 1479.31 Q1820.32 1488.04 1817.24 1492.65 Q1814.19 1497.23 1808.38 1497.23 Q1802.57 1497.23 1799.49 1492.65 Q1796.43 1488.04 1796.43 1479.31 Q1796.43 1470.56 1799.49 1465.98 Q1802.57 1461.37 1808.38 1461.37 Z" fill="#000000" fill-rule="evenodd" fill-opacity="1" /><path clip-path="url(#clip420)" d="M 0 0 M1835.39 1465.08 Q1831.78 1465.08 1829.95 1468.64 Q1828.15 1472.18 1828.15 1479.31 Q1828.15 1486.42 1829.95 1489.98 Q1831.78 1493.52 1835.39 1493.52 Q1839.02 1493.52 1840.83 1489.98 Q1842.66 1486.42 1842.66 1479.31 Q1842.66 1472.18 1840.83 1468.64 Q1839.02 1465.08 1835.39 1465.08 M1835.39 1461.37 Q1841.2 1461.37 1844.26 1465.98 Q1847.34 1470.56 1847.34 1479.31 Q1847.34 1488.04 1844.26 1492.65 Q1841.2 1497.23 1835.39 1497.23 Q1829.58 1497.23 1826.5 1492.65 Q1823.45 1488.04 1823.45 1479.31 Q1823.45 1470.56 1826.5 1465.98 Q1829.58 1461.37 1835.39 1461.37 Z" fill="#000000" fill-rule="evenodd" fill-opacity="1" /><path clip-path="url(#clip420)" d="M 0 0 M2272.29 1492.62 L2288.61 1492.62 L2288.61 1496.56 L2266.67 1496.56 L2266.67 1492.62 Q2269.33 1489.87 2273.92 1485.24 Q2278.52 1480.59 2279.7 1479.24 Q2281.95 1476.72 2282.83 1474.98 Q2283.73 1473.22 2283.73 1471.53 Q2283.73 1468.78 2281.79 1467.04 Q2279.86 1465.31 2276.76 1465.31 Q2274.56 1465.31 2272.11 1466.07 Q2269.68 1466.84 2266.9 1468.39 L2266.9 1463.66 Q2269.73 1462.53 2272.18 1461.95 Q2274.63 1461.37 2276.67 1461.37 Q2282.04 1461.37 2285.23 1464.06 Q2288.43 1466.74 2288.43 1471.23 Q2288.43 1473.36 2287.62 1475.28 Q2286.83 1477.18 2284.73 1479.77 Q2284.15 1480.45 2281.04 1483.66 Q2277.94 1486.86 2272.29 1492.62 Z" fill="#000000" fill-rule="evenodd" fill-opacity="1" /><path clip-path="url(#clip420)" d="M 0 0 M2303.68 1465.08 Q2300.07 1465.08 2298.24 1468.64 Q2296.44 1472.18 2296.44 1479.31 Q2296.44 1486.42 2298.24 1489.98 Q2300.07 1493.52 2303.68 1493.52 Q2307.32 1493.52 2309.12 1489.98 Q2310.95 1486.42 2310.95 1479.31 Q2310.95 1472.18 2309.12 1468.64 Q2307.32 1465.08 2303.68 1465.08 M2303.68 1461.37 Q2309.49 1461.37 2312.55 1465.98 Q2315.63 1470.56 2315.63 1479.31 Q2315.63 1488.04 2312.55 1492.65 Q2309.49 1497.23 2303.68 1497.23 Q2297.87 1497.23 2294.79 1492.65 Q2291.74 1488.04 2291.74 1479.31 Q2291.74 1470.56 2294.79 1465.98 Q2297.87 1461.37 2303.68 1461.37 Z" fill="#000000" fill-rule="evenodd" fill-opacity="1" /><path clip-path="url(#clip420)" d="M 0 0 M2330.7 1465.08 Q2327.09 1465.08 2325.26 1468.64 Q2323.45 1472.18 2323.45 1479.31 Q2323.45 1486.42 2325.26 1489.98 Q2327.09 1493.52 2330.7 1493.52 Q2334.33 1493.52 2336.14 1489.98 Q2337.97 1486.42 2337.97 1479.31 Q2337.97 1472.18 2336.14 1468.64 Q2334.33 1465.08 2330.7 1465.08 M2330.7 1461.37 Q2336.51 1461.37 2339.56 1465.98 Q2342.64 1470.56 2342.64 1479.31 Q2342.64 1488.04 2339.56 1492.65 Q2336.51 1497.23 2330.7 1497.23 Q2324.89 1497.23 2321.81 1492.65 Q2318.75 1488.04 2318.75 1479.31 Q2318.75 1470.56 2321.81 1465.98 Q2324.89 1461.37 2330.7 1461.37 Z" fill="#000000" fill-rule="evenodd" fill-opacity="1" /><path clip-path="url(#clip420)" d="M 0 0 M2357.71 1465.08 Q2354.1 1465.08 2352.27 1468.64 Q2350.47 1472.18 2350.47 1479.31 Q2350.47 1486.42 2352.27 1489.98 Q2354.1 1493.52 2357.71 1493.52 Q2361.35 1493.52 2363.15 1489.98 Q2364.98 1486.42 2364.98 1479.31 Q2364.98 1472.18 2363.15 1468.64 Q2361.35 1465.08 2357.71 1465.08 M2357.71 1461.37 Q2363.52 1461.37 2366.58 1465.98 Q2369.66 1470.56 2369.66 1479.31 Q2369.66 1488.04 2366.58 1492.65 Q2363.52 1497.23 2357.71 1497.23 Q2351.9 1497.23 2348.82 1492.65 Q2345.77 1488.04 2345.77 1479.31 Q2345.77 1470.56 2348.82 1465.98 Q2351.9 1461.37 2357.71 1461.37 Z" fill="#000000" fill-rule="evenodd" fill-opacity="1" /><path clip-path="url(#clip420)" d="M 0 0 M110.111 1364.04 L122.588 1364.04 L122.588 1367.83 L110.111 1367.83 L110.111 1364.04 Z" fill="#000000" fill-rule="evenodd" fill-opacity="1" /><path clip-path="url(#clip420)" d="M 0 0 M141.824 1360.29 Q145.18 1361 147.055 1363.27 Q148.953 1365.54 148.953 1368.87 Q148.953 1373.99 145.435 1376.79 Q141.916 1379.59 135.435 1379.59 Q133.259 1379.59 130.944 1379.15 Q128.652 1378.74 126.199 1377.88 L126.199 1373.37 Q128.143 1374.5 130.458 1375.08 Q132.773 1375.66 135.296 1375.66 Q139.694 1375.66 141.986 1373.92 Q144.3 1372.18 144.3 1368.87 Q144.3 1365.82 142.148 1364.11 Q140.018 1362.37 136.199 1362.37 L132.171 1362.37 L132.171 1358.53 L136.384 1358.53 Q139.833 1358.53 141.662 1357.16 Q143.49 1355.77 143.49 1353.18 Q143.49 1350.52 141.592 1349.11 Q139.717 1347.67 136.199 1347.67 Q134.277 1347.67 132.078 1348.09 Q129.879 1348.5 127.24 1349.38 L127.24 1345.22 Q129.902 1344.48 132.217 1344.11 Q134.555 1343.74 136.615 1343.74 Q141.939 1343.74 145.041 1346.17 Q148.143 1348.57 148.143 1352.69 Q148.143 1355.56 146.499 1357.56 Q144.856 1359.52 141.824 1360.29 Z" fill="#000000" fill-rule="evenodd" fill-opacity="1" /><path clip-path="url(#clip420)" d="M 0 0 M111.06 1121.04 L123.537 1121.04 L123.537 1124.84 L111.06 1124.84 L111.06 1121.04 Z" fill="#000000" fill-rule="evenodd" fill-opacity="1" /><path clip-path="url(#clip420)" d="M 0 0 M132.634 1131.99 L148.953 1131.99 L148.953 1135.93 L127.009 1135.93 L127.009 1131.99 Q129.671 1129.24 134.254 1124.61 Q138.861 1119.95 140.041 1118.61 Q142.287 1116.09 143.166 1114.35 Q144.069 1112.59 144.069 1110.9 Q144.069 1108.15 142.124 1106.41 Q140.203 1104.68 137.101 1104.68 Q134.902 1104.68 132.449 1105.44 Q130.018 1106.2 127.24 1107.76 L127.24 1103.03 Q130.064 1101.9 132.518 1101.32 Q134.972 1100.74 137.009 1100.74 Q142.379 1100.74 145.574 1103.43 Q148.768 1106.11 148.768 1110.6 Q148.768 1112.73 147.958 1114.65 Q147.171 1116.55 145.064 1119.14 Q144.486 1119.82 141.384 1123.03 Q138.282 1126.23 132.634 1131.99 Z" fill="#000000" fill-rule="evenodd" fill-opacity="1" /><path clip-path="url(#clip420)" d="M 0 0 M110.689 878.048 L123.166 878.048 L123.166 881.844 L110.689 881.844 L110.689 878.048 Z" fill="#000000" fill-rule="evenodd" fill-opacity="1" /><path clip-path="url(#clip420)" d="M 0 0 M129.046 888.997 L136.685 888.997 L136.685 862.631 L128.375 864.298 L128.375 860.039 L136.638 858.372 L141.314 858.372 L141.314 888.997 L148.953 888.997 L148.953 892.932 L129.046 892.932 L129.046 888.997 Z" fill="#000000" fill-rule="evenodd" fill-opacity="1" /><path clip-path="url(#clip420)" d="M 0 0 M137.009 618.456 Q133.398 618.456 131.569 622.021 Q129.763 625.563 129.763 632.693 Q129.763 639.799 131.569 643.364 Q133.398 646.905 137.009 646.905 Q140.643 646.905 142.449 643.364 Q144.277 639.799 144.277 632.693 Q144.277 625.563 142.449 622.021 Q140.643 618.456 137.009 618.456 M137.009 614.753 Q142.819 614.753 145.874 619.359 Q148.953 623.943 148.953 632.693 Q148.953 641.419 145.874 646.026 Q142.819 650.609 137.009 650.609 Q131.199 650.609 128.12 646.026 Q125.064 641.419 125.064 632.693 Q125.064 623.943 128.12 619.359 Q131.199 614.753 137.009 614.753 Z" fill="#000000" fill-rule="evenodd" fill-opacity="1" /><path clip-path="url(#clip420)" d="M 0 0 M129.046 403.008 L136.685 403.008 L136.685 376.643 L128.375 378.309 L128.375 374.05 L136.638 372.383 L141.314 372.383 L141.314 403.008 L148.953 403.008 L148.953 406.943 L129.046 406.943 L129.046 403.008 Z" fill="#000000" fill-rule="evenodd" fill-opacity="1" /><path clip-path="url(#clip420)" d="M 0 0 M132.634 160.014 L148.953 160.014 L148.953 163.949 L127.009 163.949 L127.009 160.014 Q129.671 157.259 134.254 152.63 Q138.861 147.977 140.041 146.634 Q142.287 144.111 143.166 142.375 Q144.069 140.616 144.069 138.926 Q144.069 136.172 142.124 134.435 Q140.203 132.699 137.101 132.699 Q134.902 132.699 132.449 133.463 Q130.018 134.227 127.24 135.778 L127.24 131.056 Q130.064 129.922 132.518 129.343 Q134.972 128.764 137.009 128.764 Q142.379 128.764 145.574 131.449 Q148.768 134.135 148.768 138.625 Q148.768 140.755 147.958 142.676 Q147.171 144.574 145.064 147.167 Q144.486 147.838 141.384 151.056 Q138.282 154.25 132.634 160.014 Z" fill="#000000" fill-rule="evenodd" fill-opacity="1" /><path clip-path="url(#clip420)" d="M 0 0 M1271.32 1531.92 Q1271.32 1532.82 1270.9 1533.04 Q1270.48 1533.24 1269.32 1533.24 L1263.14 1533.24 L1258.24 1552.69 Q1257.86 1554.4 1257.86 1555.84 Q1257.86 1557.45 1258.34 1558.16 Q1258.85 1558.87 1259.92 1558.87 Q1262.01 1558.87 1264.26 1556.97 Q1266.55 1555.07 1268.48 1550.43 Q1268.74 1549.82 1268.87 1549.69 Q1269.03 1549.53 1269.45 1549.53 Q1270.25 1549.53 1270.25 1550.18 Q1270.25 1550.4 1269.8 1551.43 Q1269.38 1552.46 1268.45 1553.98 Q1267.55 1555.49 1266.36 1556.91 Q1265.2 1558.32 1263.43 1559.36 Q1261.66 1560.35 1259.76 1560.35 Q1257.08 1560.35 1255.38 1558.65 Q1253.7 1556.94 1253.7 1554.27 Q1253.7 1553.4 1254.38 1550.63 Q1255.05 1547.83 1258.72 1533.24 L1252.9 1533.24 Q1252.09 1533.24 1251.77 1533.2 Q1251.48 1533.17 1251.25 1533.01 Q1251.06 1532.82 1251.06 1532.43 Q1251.06 1531.82 1251.32 1531.56 Q1251.57 1531.27 1251.9 1531.24 Q1252.25 1531.17 1253.06 1531.17 L1259.24 1531.17 L1261.82 1520.71 Q1262.07 1519.68 1262.72 1519.1 Q1263.39 1518.49 1263.78 1518.42 Q1264.17 1518.32 1264.46 1518.32 Q1265.33 1518.32 1265.84 1518.81 Q1266.36 1519.26 1266.36 1520.1 Q1266.36 1520.55 1263.65 1531.17 L1269.45 1531.17 Q1270.19 1531.17 1270.48 1531.21 Q1270.8 1531.24 1271.06 1531.4 Q1271.32 1531.56 1271.32 1531.92 Z" fill="#000000" fill-rule="evenodd" fill-opacity="1" /><path clip-path="url(#clip420)" d="M 0 0 M50.3502 754.42 Q50.7367 754.033 51.2842 754.033 Q51.8317 754.033 52.2182 754.42 Q52.6046 754.806 52.6046 755.354 L52.6046 796.642 Q52.6046 797.189 52.2182 797.576 Q51.8317 797.962 51.2842 797.962 Q50.7367 797.962 50.3502 797.576 Q49.9638 797.189 49.9638 796.642 L49.9638 755.354 Q49.9638 754.806 50.3502 754.42 Z" fill="#000000" fill-rule="evenodd" fill-opacity="1" /><path clip-path="url(#clip420)" d="M 0 0 M42.9107 720.252 Q44.6176 720.252 45.7126 721.379 Q46.8076 722.474 46.8076 723.891 Q46.8076 725.115 46.0991 725.759 Q45.3905 726.403 44.4888 726.403 Q43.2005 726.403 42.1377 725.405 Q41.0749 724.406 40.8495 722.957 Q40.0766 724.02 40.0766 725.727 Q40.0766 728.529 42.2343 731.008 Q43.2327 732.103 45.0685 733.295 Q46.872 734.487 47.6449 734.712 L56.2439 736.805 Q57.2101 736.999 61.8477 738.19 Q66.4532 739.35 66.6464 739.446 Q67.5482 739.768 68.0312 740.477 Q68.5143 741.185 68.5143 741.894 Q68.5143 742.699 68.0312 743.247 Q67.5482 743.794 66.7108 743.794 Q66.582 743.794 66.0989 743.698 Q65.6158 743.601 64.9395 743.44 Q64.2632 743.279 63.8767 743.214 L48.6433 739.382 Q45.8736 738.673 45.0041 738.512 Q44.1023 738.319 43.1039 738.319 Q41.3648 738.319 40.7207 738.867 Q40.0766 739.414 40.0766 740.38 Q40.0766 742.055 42.0733 743.15 Q44.0701 744.245 47.9348 745.179 Q48.9976 745.469 49.223 745.662 Q49.4485 745.823 49.4485 746.306 Q49.4163 747.111 48.7721 747.111 Q48.6111 747.111 47.5805 746.854 Q46.5177 746.596 44.9718 746.113 Q43.3938 745.598 42.3954 745.05 Q41.7191 744.728 41.2682 744.438 Q40.8173 744.148 40.1088 743.569 Q39.4002 742.989 39.0138 742.119 Q38.6273 741.25 38.6273 740.187 Q38.6273 737.868 40.0443 736.226 Q41.4614 734.551 43.6836 734.165 Q42.5242 733.359 41.5258 732.361 Q40.4952 731.363 39.5613 729.527 Q38.6273 727.691 38.6273 725.727 Q38.6273 723.279 39.8833 721.765 Q41.1071 720.252 42.9107 720.252 Z" fill="#000000" fill-rule="evenodd" fill-opacity="1" /><path clip-path="url(#clip420)" d="M 0 0 M66.2088 699.282 Q66.84 699.282 66.9978 699.575 Q67.1331 699.868 67.1331 700.679 L67.1331 705.008 L80.7497 708.435 Q81.9446 708.705 82.9591 708.705 Q84.0863 708.705 84.5822 708.367 Q85.0782 708.006 85.0782 707.262 Q85.0782 705.797 83.7481 704.219 Q82.418 702.618 79.1717 701.266 Q78.7433 701.085 78.6531 700.995 Q78.5404 700.882 78.5404 700.589 Q78.5404 700.026 78.9913 700.026 Q79.1491 700.026 79.8705 700.341 Q80.5919 700.634 81.6515 701.288 Q82.7111 701.919 83.703 702.753 Q84.695 703.565 85.4164 704.805 Q86.1152 706.045 86.1152 707.375 Q86.1152 709.246 84.9204 710.441 Q83.7256 711.613 81.8544 711.613 Q81.2457 711.613 79.3069 711.14 Q77.3456 710.666 67.1331 708.096 L67.1331 712.177 Q67.1331 712.741 67.1106 712.966 Q67.088 713.169 66.9753 713.327 Q66.84 713.462 66.5695 713.462 Q66.1412 713.462 65.9608 713.282 Q65.7579 713.101 65.7354 712.876 Q65.6903 712.628 65.6903 712.064 L65.6903 707.736 L58.3634 705.932 Q57.642 705.752 57.2362 705.301 Q56.8079 704.828 56.7628 704.557 Q56.6952 704.286 56.6952 704.084 Q56.6952 703.475 57.0333 703.114 Q57.349 702.753 57.9351 702.753 Q58.2507 702.753 65.6903 704.647 L65.6903 700.589 Q65.6903 700.071 65.7128 699.868 Q65.7354 699.642 65.8481 699.462 Q65.9608 699.282 66.2088 699.282 Z" fill="#000000" fill-rule="evenodd" fill-opacity="1" /><polyline clip-path="url(#clip422)" style="stroke:#009af9; stroke-width:4; stroke-opacity:1; fill:none" points="
  234.646,663.113 235.688,639.674 236.73,648.079 237.773,687.749 238.815,580.592 239.857,681.95 240.899,672.283 241.942,643.49 242.984,554.889 244.026,755.164 
  245.068,575.849 246.111,608.84 247.153,612.093 248.195,636.469 249.238,624.297 250.28,618.073 251.322,646.957 252.364,605.001 253.407,649.939 254.449,587.716 
  255.491,576.377 256.534,531.77 257.576,605.488 258.618,594.088 259.66,595.789 260.703,564.097 261.745,578.965 262.787,625.611 263.83,592.182 264.872,667.832 
  265.914,524.049 266.956,595.271 267.999,723.828 269.041,694.564 270.083,853.231 271.125,306.363 272.168,777.233 273.21,389.457 274.252,748.685 275.295,719.863 
  276.337,591.038 277.379,568.764 278.421,373.976 279.464,601.477 280.506,460.094 281.548,430.784 282.591,676.97 283.633,574.703 284.675,750.633 285.717,627.916 
  286.76,515.185 287.802,679.492 288.844,708.039 289.887,766.82 290.929,553.328 291.971,661.347 293.013,534.529 294.056,545.043 295.098,596.677 296.14,543.452 
  297.182,728.571 298.225,470.912 299.267,632.715 300.309,549.033 301.352,703.77 302.394,698.257 303.436,647.552 304.478,608.869 305.521,645.972 306.563,715.804 
  307.605,627.463 308.648,587.303 309.69,614.732 310.732,670.684 311.774,606.519 312.817,671.073 313.859,661.054 314.901,803.786 315.944,624.782 316.986,656.859 
  318.028,602.074 319.07,702.521 320.113,767.583 321.155,671.624 322.197,641.803 323.239,873.926 324.282,488.07 325.324,716.391 326.366,507.762 327.409,609 
  328.451,565.571 329.493,643.695 330.535,762.048 331.578,693.5 332.62,637.624 333.662,416.869 334.705,524.391 335.747,640.601 336.789,468.749 337.831,685.888 
  338.874,619.924 339.916,514.34 340.958,538.014 342,584.915 343.043,681.196 344.085,700.482 345.127,648.903 346.17,655.165 347.212,634.96 348.254,614.998 
  349.296,692.881 350.339,694.181 351.381,735.954 352.423,582.397 353.466,678.166 354.508,620.96 355.55,529.503 356.592,563.77 357.635,582.015 358.677,668.96 
  359.719,647.785 360.762,603.412 361.804,607.81 362.846,599.469 363.888,501.237 364.931,568.2 365.973,434.787 367.015,776.489 368.057,719.431 369.1,692.373 
  370.142,584.505 371.184,856.593 372.227,557.399 373.269,708.685 374.311,716.122 375.353,682.452 376.396,710.897 377.438,623.048 378.48,596.362 379.523,471.648 
  380.565,767.291 381.607,598.761 382.649,708.122 383.692,664.564 384.734,673.389 385.776,641.885 386.819,666.463 387.861,615.647 388.903,627.011 389.945,545.381 
  390.988,739.007 392.03,638.028 393.072,571.961 394.114,539.98 395.157,605.608 396.199,658.015 397.241,625.135 398.284,645.168 399.326,413.883 400.368,668.313 
  401.41,785.828 402.453,568.75 403.495,699.749 404.537,624.894 405.58,678.727 406.622,579.544 407.664,623.506 408.706,656.011 409.749,694.306 410.791,700.678 
  411.833,808.033 412.876,599.835 413.918,752.433 414.96,596.734 416.002,584.928 417.045,328.477 418.087,881.879 419.129,630.845 420.171,755.603 421.214,191.505 
  422.256,704.011 423.298,650.713 424.341,514.655 425.383,666.625 426.425,376.743 427.467,890.009 428.51,604.037 429.552,631.142 430.594,639.346 431.637,626.923 
  432.679,729.347 433.721,685.584 434.763,712.363 435.806,627.441 436.848,621.06 437.89,462.459 438.933,412.842 439.975,383.556 441.017,427.753 442.059,684.251 
  443.102,665.614 444.144,601.032 445.186,778.914 446.228,631.418 447.271,618.886 448.313,563.568 449.355,608.115 450.398,631.314 451.44,657.789 452.482,691.425 
  453.524,740.336 454.567,603.728 455.609,773.924 456.651,584.412 457.694,685.559 458.736,672.97 459.778,630.946 460.82,650.639 461.863,557.918 462.905,631.043 
  463.947,658.125 464.989,325.064 466.032,625.321 467.074,574.29 468.116,679.542 469.159,592.92 470.201,751.525 471.243,734.25 472.285,630.829 473.328,642.317 
  474.37,646.372 475.412,542.174 476.455,617.42 477.497,764.534 478.539,565.034 479.581,550.477 480.624,614.506 481.666,658.796 482.708,565.711 483.751,407.241 
  484.793,552.802 485.835,484.807 486.877,845.649 487.92,745.765 488.962,550.017 490.004,520.702 491.046,567.011 492.089,678.171 493.131,686.622 494.173,546.784 
  495.216,588.143 496.258,553.346 497.3,498.739 498.342,306.277 499.385,784.604 500.427,593.251 501.469,669.662 502.512,598.004 503.554,589.182 504.596,701.878 
  505.638,620.419 506.681,525.543 507.723,494.958 508.765,691.162 509.808,474.25 510.85,774.762 511.892,796.62 512.934,713.583 513.977,675.917 515.019,599.49 
  516.061,671.543 517.103,672.227 518.146,719.032 519.188,798.261 520.23,462.503 521.273,578.115 522.315,581.969 523.357,664.822 524.399,752.1 525.442,697.682 
  526.484,642.213 527.526,744.015 528.569,679.525 529.611,681.996 530.653,672.536 531.695,408.783 532.738,600.296 533.78,687.572 534.822,503.367 535.865,685.323 
  536.907,742.373 537.949,621.551 538.991,609.852 540.034,726.79 541.076,580.059 542.118,654.166 543.16,703.67 544.203,696.949 545.245,671.685 546.287,859.278 
  547.33,995.846 548.372,640.671 549.414,690.684 550.456,758.871 551.499,696.129 552.541,690.818 553.583,839.518 554.626,670.082 555.668,700.61 556.71,393.044 
  557.752,631.203 558.795,645.19 559.837,616.873 560.879,595.427 561.921,634.741 562.964,788.514 564.006,731.767 565.048,765.233 566.091,615.7 567.133,727.942 
  568.175,513.489 569.217,596.46 570.26,569.852 571.302,751.277 572.344,619.066 573.387,169.258 574.429,581.18 575.471,959.808 576.513,750.509 577.556,621.544 
  578.598,763.604 579.64,530.82 580.683,699.068 581.725,591.354 582.767,642.344 583.809,622.673 584.852,762.453 585.894,712 586.936,655.439 587.978,718.433 
  589.021,608.225 590.063,638.346 591.105,567.577 592.148,693.946 593.19,628.657 594.232,659.97 595.274,786.874 596.317,672.946 597.359,657.979 598.401,470.708 
  599.444,451.322 600.486,731.753 601.528,670.851 602.57,603.408 603.613,605.862 604.655,746.82 605.697,759.026 606.74,517.692 607.782,799.986 608.824,623.293 
  609.866,567.167 610.909,751.505 611.951,572.461 612.993,633.562 614.035,759.601 615.078,648.335 616.12,747.719 617.162,571.044 618.205,606.553 619.247,795.786 
  620.289,661.123 621.331,638.692 622.374,710.919 623.416,1042.1 624.458,306.159 625.501,533.307 626.543,611.98 627.585,630.613 628.627,778.198 629.67,551.568 
  630.712,693.18 631.754,600.271 632.797,694.327 633.839,667.656 634.881,636.675 635.923,703.576 636.966,527.876 638.008,661.049 639.05,302.29 640.092,205.254 
  641.135,284.542 642.177,713.975 643.219,453.394 644.262,456.768 645.304,844.37 646.346,581.218 647.388,743.088 648.431,754.14 649.473,543.433 650.515,617.879 
  651.558,687.036 652.6,602.452 653.642,647.482 654.684,613.35 655.727,606.709 656.769,671.931 657.811,700.386 658.854,681.404 659.896,698.02 660.938,628.288 
  661.98,777.293 663.023,575.775 664.065,647.032 665.107,603.919 666.149,521.239 667.192,389.857 668.234,679.298 669.276,752.77 670.319,519.975 671.361,901.341 
  672.403,478.416 673.445,575.3 674.488,692.212 675.53,709.85 676.572,731.086 677.615,596.283 678.657,552.665 679.699,549.003 680.741,354.671 681.784,168.709 
  682.826,528.808 683.868,780.658 684.91,530.399 685.953,626.275 686.995,563.608 688.037,662.043 689.08,642.624 690.122,664.136 691.164,655.805 692.206,663.591 
  693.249,623.004 694.291,672.514 695.333,797.361 696.376,551.441 697.418,515.856 698.46,737.014 699.502,742.556 700.545,597.669 701.587,680.707 702.629,475.596 
  703.672,621.755 704.714,699.054 705.756,647.601 706.798,634.515 707.841,463.854 708.883,578.716 709.925,661.359 710.967,590.131 712.01,498.211 713.052,606.418 
  714.094,737.551 715.137,493.282 716.179,636.156 717.221,735.37 718.263,634.5 719.306,673.722 720.348,589.622 721.39,764.164 722.433,577.014 723.475,769.681 
  724.517,549.428 725.559,622.762 726.602,544.314 727.644,589.802 728.686,815.987 729.729,605.822 730.771,609.333 731.813,543.436 732.855,597.772 733.898,446.794 
  734.94,389.383 735.982,515.989 737.024,479.831 738.067,702.925 739.109,593.376 740.151,537.327 741.194,429.559 742.236,628.771 743.278,650.042 744.32,648.846 
  745.363,498.097 746.405,466.003 747.447,729.869 748.49,593.889 749.532,672.703 750.574,571.671 751.616,456.257 752.659,694.904 753.701,827.376 754.743,720.612 
  755.786,548.926 756.828,622.654 757.87,590.649 758.912,538.35 759.955,661.507 760.997,545.428 762.039,258.749 763.081,559.105 764.124,215.169 765.166,472.201 
  766.208,162.965 767.251,1167.89 768.293,205.39 769.335,802.719 770.377,762.539 771.42,229.455 772.462,531.261 773.504,892.113 774.547,829.669 775.589,560.793 
  776.631,554.595 777.673,631.49 778.716,499.767 779.758,750.103 780.8,494.234 781.842,899.298 782.885,479.862 783.927,780.948 784.969,498.197 786.012,623.437 
  787.054,771.956 788.096,457.828 789.138,281.622 790.181,397.399 791.223,134.909 792.265,662.03 793.308,1100.26 794.35,681.444 795.392,512.504 796.434,931.521 
  797.477,772.529 798.519,969.689 799.561,390.035 800.604,578.464 801.646,366.155 802.688,756.349 803.73,968.936 804.773,806.863 805.815,711.098 806.857,971.329 
  807.899,417.039 808.942,954.335 809.984,672.266 811.026,478.011 812.069,1049.19 813.111,671.014 814.153,444.53 815.195,868.34 816.238,363.303 817.28,238.214 
  818.322,715.154 819.365,588.72 820.407,748.412 821.449,819.766 822.491,255.602 823.534,549.375 824.576,596.046 825.618,326.435 826.661,589.057 827.703,629.889 
  828.745,928.977 829.787,695.595 830.83,476.384 831.872,685.816 832.914,749.013 833.956,505.401 834.999,918.61 836.041,539.732 837.083,424.534 838.126,646.152 
  839.168,642.638 840.21,689.834 841.252,651.171 842.295,623.645 843.337,754.608 844.379,747.581 845.422,657.625 846.464,568.807 847.506,788.807 848.548,624.857 
  849.591,682.448 850.633,658.247 851.675,436.56 852.718,453.111 853.76,471.84 854.802,687.303 855.844,507.104 856.887,706.107 857.929,813.783 858.971,591.638 
  860.013,551.826 861.056,520.8 862.098,697.942 863.14,635.261 864.183,702.441 865.225,692.749 866.267,573.181 867.309,592.85 868.352,613.218 869.394,699.529 
  870.436,600.822 871.479,629.424 872.521,664.729 873.563,541.514 874.605,641.135 875.648,526.181 876.69,593.217 877.732,595.151 878.774,479.192 879.817,588.251 
  880.859,220.727 881.901,482.088 882.944,783.957 883.986,624.395 885.028,410.258 886.07,380.917 887.113,548.106 888.155,606.136 889.197,715.141 890.24,766.576 
  891.282,243.485 892.324,561.8 893.366,846.301 894.409,277.643 895.451,514.23 896.493,300.607 897.536,1084.03 898.578,367.412 899.62,332.545 900.662,728.022 
  901.705,435.438 902.747,949.701 903.789,632.961 904.831,576.409 905.874,802.303 906.916,558.826 907.958,705.304 909.001,568.608 910.043,571.726 911.085,503.208 
  912.127,416.356 913.17,776.193 914.212,521.238 915.254,615.988 916.297,529.773 917.339,673.371 918.381,795.255 919.423,617.782 920.466,665.321 921.508,847.702 
  922.55,601.718 923.593,424.718 924.635,765.721 925.677,610.827 926.719,495.236 927.762,549.024 928.804,390.299 929.846,319.142 930.888,502.993 931.931,749.06 
  932.973,580.196 934.015,658.009 935.058,675.831 936.1,373.793 937.142,504.785 938.184,744.702 939.227,647.193 940.269,396.154 941.311,548.057 942.354,452.012 
  943.396,793.534 944.438,318.76 945.48,701.21 946.523,631.465 947.565,433.718 948.607,576.166 949.65,720.543 950.692,608.48 951.734,479.117 952.776,700.762 
  953.819,888.852 954.861,503.666 955.903,612.275 956.945,812.022 957.988,659.449 959.03,745.297 960.072,527.821 961.115,438.652 962.157,1057.32 963.199,952.305 
  964.241,428.002 965.284,800.621 966.326,821.346 967.368,559.696 968.411,679.271 969.453,468.733 970.495,319.912 971.537,487.379 972.58,617.255 973.622,643.522 
  974.664,632.956 975.707,312.79 976.749,754.905 977.791,747.124 978.833,478.688 979.876,611.482 980.918,610.907 981.96,633.996 983.002,407.358 984.045,715.636 
  985.087,742.728 986.129,578.949 987.172,802.6 988.214,680.67 989.256,676.574 990.298,779.565 991.341,518.664 992.383,798.015 993.425,661.555 994.468,739.786 
  995.51,481.459 996.552,561.636 997.594,639.891 998.637,509.23 999.679,469.659 1000.72,634.629 1001.76,797.969 1002.81,641.648 1003.85,630.183 1004.89,486.796 
  1005.93,560.235 1006.97,612.21 1008.02,649.256 1009.06,614.462 1010.1,581.288 1011.14,417.182 1012.19,428.999 1013.23,465.182 1014.27,813.108 1015.31,623.698 
  1016.36,716.654 1017.4,825.62 1018.44,473.001 1019.48,436.537 1020.52,742.402 1021.57,599.296 1022.61,317.956 1023.65,652.907 1024.69,813.149 1025.74,574.42 
  1026.78,491.671 1027.82,771.422 1028.86,829.86 1029.91,815.875 1030.95,672.413 1031.99,317.878 1033.03,609.971 1034.07,549.628 1035.12,790.673 1036.16,573.305 
  1037.2,639.078 1038.24,851.424 1039.29,775.883 1040.33,522.809 1041.37,714.303 1042.41,856.098 1043.45,407.481 1044.5,600.248 1045.54,767.331 1046.58,821.668 
  1047.62,808.386 1048.67,636.191 1049.71,905.474 1050.75,733.239 1051.79,964.2 1052.84,611.173 1053.88,788.068 1054.92,479.738 1055.96,464.47 1057,489.695 
  1058.05,734.627 1059.09,882.261 1060.13,501.45 1061.17,552.052 1062.22,764.169 1063.26,593.166 1064.3,671.637 1065.34,581.527 1066.38,565.096 1067.43,490.821 
  1068.47,525.82 1069.51,781.543 1070.55,583.781 1071.6,752.661 1072.64,906.298 1073.68,585.831 1074.72,733.319 1075.77,614.678 1076.81,479.128 1077.85,614.814 
  1078.89,610.501 1079.93,706.026 1080.98,715.043 1082.02,654.623 1083.06,684.537 1084.1,653.566 1085.15,570.624 1086.19,684.829 1087.23,708.784 1088.27,634.415 
  1089.31,621.289 1090.36,637.752 1091.4,733.265 1092.44,597.461 1093.48,741.291 1094.53,635.011 1095.57,469.226 1096.61,769.755 1097.65,652.894 1098.7,591.331 
  1099.74,621.437 1100.78,662.892 1101.82,587.546 1102.86,638.428 1103.91,593.745 1104.95,475.227 1105.99,474.37 1107.03,766.071 1108.08,757.977 1109.12,618.614 
  1110.16,531.053 1111.2,568.419 1112.25,656.489 1113.29,696.395 1114.33,752.549 1115.37,650.612 1116.41,683.544 1117.46,615.503 1118.5,623.761 1119.54,512.408 
  1120.58,451.985 1121.63,507.326 1122.67,778.727 1123.71,633.733 1124.75,599.568 1125.79,450.102 1126.84,803.235 1127.88,721.114 1128.92,670.87 1129.96,643.416 
  1131.01,673.668 1132.05,719.523 1133.09,662.698 1134.13,550.745 1135.18,644.174 1136.22,670.519 1137.26,617.594 1138.3,689.986 1139.34,680.135 1140.39,687.291 
  1141.43,557.936 1142.47,574.922 1143.51,538.906 1144.56,680.894 1145.6,638.08 1146.64,538.369 1147.68,686.456 1148.72,625.328 1149.77,635.226 1150.81,526.16 
  1151.85,698.538 1152.89,575.82 1153.94,710.38 1154.98,600.901 1156.02,606.851 1157.06,667.587 1158.11,690.622 1159.15,708.806 1160.19,690.023 1161.23,610.844 
  1162.27,611.874 1163.32,566.455 1164.36,596.402 1165.4,614.444 1166.44,597.152 1167.49,677.482 1168.53,539.339 1169.57,547.152 1170.61,682.557 1171.66,686.357 
  1172.7,680.238 1173.74,720.529 1174.78,608.553 1175.82,619.013 1176.87,655.639 1177.91,614.2 1178.95,654.851 1179.99,585.227 1181.04,686.762 1182.08,644.236 
  1183.12,662.461 1184.16,638.604 1185.2,692.071 1186.25,671.591 1187.29,633.707 1188.33,609.371 1189.37,637.052 1190.42,491.208 1191.46,702.345 1192.5,729.582 
  1193.54,628.242 1194.59,650.482 1195.63,599.931 1196.67,605.8 1197.71,672.639 1198.75,636.908 1199.8,616.506 1200.84,639.805 1201.88,619.307 1202.92,669.766 
  1203.97,634.444 1205.01,652.776 1206.05,617.418 1207.09,618.284 1208.13,554.909 1209.18,686.829 1210.22,592.837 1211.26,725.74 1212.3,591.56 1213.35,654.519 
  1214.39,616.273 1215.43,642.482 1216.47,559.001 1217.52,583.979 1218.56,600.029 1219.6,651.786 1220.64,711.853 1221.68,625.168 1222.73,611.815 1223.77,587.446 
  1224.81,546.544 1225.85,687.522 1226.9,635.916 1227.94,723.987 1228.98,636.304 1230.02,590.037 1231.07,705.875 1232.11,612.53 1233.15,612.768 1234.19,681.261 
  1235.23,638.513 1236.28,614.969 1237.32,650.601 1238.36,649.763 1239.4,628.095 1240.45,649.624 1241.49,647.583 1242.53,627.581 1243.57,619.878 1244.61,622.098 
  1245.66,646.611 1246.7,635.811 1247.74,624.89 1248.78,622.945 1249.83,573.32 1250.87,578.004 1251.91,672.956 1252.95,560.542 1254,709.023 1255.04,602.803 
  1256.08,644.911 1257.12,487.956 1258.16,609.9 1259.21,599.257 1260.25,700.316 1261.29,747.318 1262.33,609.786 1263.38,616.1 1264.42,693.078 1265.46,614.628 
  1266.5,612.644 1267.54,663.311 1268.59,609.426 1269.63,603.424 1270.67,686.225 1271.71,611.401 1272.76,628.982 1273.8,643.506 1274.84,625.677 1275.88,577.967 
  1276.93,559.068 1277.97,690.676 1279.01,588.87 1280.05,631.48 1281.09,617.6 1282.14,695.242 1283.18,705.925 1284.22,626.906 1285.26,634.801 1286.31,596.081 
  1287.35,610.148 1288.39,628.573 1289.43,638.171 1290.47,657.986 1291.52,645.097 1292.56,668.924 1293.6,648.96 1294.64,597.231 1295.69,661.488 1296.73,665.404 
  1297.77,634.008 1298.81,648.45 1299.86,634.747 1300.9,640.651 1301.94,603.108 1302.98,682.787 1304.02,633.41 1305.07,661.157 1306.11,648.078 1307.15,891.442 
  1308.19,897.559 1309.24,718.318 1310.28,650.121 1311.32,598.45 1312.36,687.98 1313.41,648.481 1314.45,663.79 1315.49,681.005 1316.53,600.931 1317.57,660.214 
  1318.62,638.716 1319.66,736.87 1320.7,627.182 1321.74,390.716 1322.79,709.667 1323.83,784.566 1324.87,659.943 1325.91,719.755 1326.95,717.135 1328,677.548 
  1329.04,623.642 1330.08,676.339 1331.12,550.494 1332.17,570.371 1333.21,635.614 1334.25,594.236 1335.29,733.304 1336.34,776.87 1337.38,618.504 1338.42,660.565 
  1339.46,659.658 1340.5,648.52 1341.55,588.835 1342.59,571.785 1343.63,633.505 1344.67,586.693 1345.72,689.013 1346.76,591.277 1347.8,591.089 1348.84,596.057 
  1349.88,671.734 1350.93,833.088 1351.97,652.701 1353.01,636.312 1354.05,733.005 1355.1,720.903 1356.14,562.569 1357.18,553.376 1358.22,644.431 1359.27,673.276 
  1360.31,674.089 1361.35,597.368 1362.39,669.664 1363.43,700.634 1364.48,604.985 1365.52,333.997 1366.56,293.956 1367.6,621.773 1368.65,637.082 1369.69,806.39 
  1370.73,625.086 1371.77,642.669 1372.82,768.156 1373.86,550.573 1374.9,581.066 1375.94,680.525 1376.98,660.98 1378.03,667.541 1379.07,587.448 1380.11,695.769 
  1381.15,580.811 1382.2,446.114 1383.24,664.276 1384.28,646.812 1385.32,601.814 1386.36,507.341 1387.41,526.888 1388.45,737.546 1389.49,855.199 1390.53,604.148 
  1391.58,609.579 1392.62,693.673 1393.66,538.141 1394.7,670.777 1395.75,662.366 1396.79,621.169 1397.83,761.112 1398.87,692.945 1399.91,763.393 1400.96,777.851 
  1402,511.138 1403.04,797.11 1404.08,655.658 1405.13,622.314 1406.17,834.794 1407.21,596.362 1408.25,628.785 1409.29,610.096 1410.34,589.854 1411.38,717.135 
  1412.42,643.864 1413.46,602.76 1414.51,819.847 1415.55,674.709 1416.59,549.621 1417.63,565.247 1418.68,602.534 1419.72,707.882 1420.76,668.943 1421.8,426.042 
  1422.84,780.297 1423.89,660.981 1424.93,506.939 1425.97,459.577 1427.01,401.819 1428.06,542.871 1429.1,683.416 1430.14,629.293 1431.18,651.169 1432.22,405.601 
  1433.27,617.312 1434.31,802.445 1435.35,602.527 1436.39,599.566 1437.44,618.373 1438.48,595.075 1439.52,677.022 1440.56,631.533 1441.61,723.07 1442.65,615.816 
  1443.69,564.12 1444.73,684.653 1445.77,616.303 1446.82,605.837 1447.86,583.353 1448.9,681.917 1449.94,710.091 1450.99,776.14 1452.03,646.96 1453.07,632.026 
  1454.11,581.566 1455.16,568.565 1456.2,663.275 1457.24,615.066 1458.28,717.487 1459.32,687.133 1460.37,675.532 1461.41,672.917 1462.45,616.028 1463.49,631.045 
  1464.54,592.967 1465.58,527.523 1466.62,647.024 1467.66,765.351 1468.7,363.763 1469.75,523.495 1470.79,711.807 1471.83,600.019 1472.87,625.875 1473.92,688.192 
  1474.96,652.288 1476,724.927 1477.04,626.757 1478.09,620.376 1479.13,702.444 1480.17,657.028 1481.21,646.47 1482.25,547.839 1483.3,608.53 1484.34,613.555 
  1485.38,634.098 1486.42,644.931 1487.47,582.799 1488.51,671.192 1489.55,615.984 1490.59,662.316 1491.63,588.121 1492.68,644.882 1493.72,568.989 1494.76,963.072 
  1495.8,678.434 1496.85,724.518 1497.89,668.209 1498.93,620.307 1499.97,715.616 1501.02,676.04 1502.06,697.258 1503.1,635.548 1504.14,435.113 1505.18,576.152 
  1506.23,566.116 1507.27,532.374 1508.31,634.817 1509.35,781.783 1510.4,708.025 1511.44,644.457 1512.48,551.947 1513.52,608.638 1514.57,661.654 1515.61,637.687 
  1516.65,610.834 1517.69,811.522 1518.73,592.855 1519.78,725.569 1520.82,624.031 1521.86,635.532 1522.9,646.143 1523.95,647.547 1524.99,730.13 1526.03,751.935 
  1527.07,602.063 1528.11,715.137 1529.16,667.346 1530.2,685.557 1531.24,625.323 1532.28,502.392 1533.33,686.213 1534.37,490.575 1535.41,728.05 1536.45,713.25 
  1537.5,648.009 1538.54,663.891 1539.58,672.45 1540.62,538.425 1541.66,653.714 1542.71,686.921 1543.75,519.191 1544.79,540.516 1545.83,680.976 1546.88,656.344 
  1547.92,626.905 1548.96,725.332 1550,633.703 1551.04,529.704 1552.09,659.783 1553.13,602.545 1554.17,568.941 1555.21,646.463 1556.26,315.11 1557.3,547.758 
  1558.34,701.53 1559.38,397.396 1560.43,662.964 1561.47,632.531 1562.51,486.53 1563.55,721.299 1564.59,730.79 1565.64,692.363 1566.68,586.229 1567.72,665.183 
  1568.76,674.394 1569.81,669.229 1570.85,575.065 1571.89,755.321 1572.93,651.271 1573.98,593.33 1575.02,654.7 1576.06,638.484 1577.1,701.274 1578.14,590.776 
  1579.19,528.455 1580.23,533.472 1581.27,597.352 1582.31,708.76 1583.36,459.563 1584.4,715.6 1585.44,629.118 1586.48,609.366 1587.52,640.785 1588.57,629.319 
  1589.61,760.588 1590.65,550.475 1591.69,555.954 1592.74,679.532 1593.78,554.996 1594.82,709.998 1595.86,638.133 1596.91,609.023 1597.95,605.726 1598.99,595.869 
  1600.03,649.232 1601.07,619.058 1602.12,623.417 1603.16,649.063 1604.2,649.93 1605.24,683.241 1606.29,607.223 1607.33,634.292 1608.37,655.545 1609.41,623.046 
  1610.45,667.769 1611.5,639.096 1612.54,615.842 1613.58,598.607 1614.62,746.786 1615.67,553.983 1616.71,546.614 1617.75,592.294 1618.79,543.415 1619.84,585.687 
  1620.88,610.904 1621.92,447.232 1622.96,636.409 1624,607.487 1625.05,519.623 1626.09,673.065 1627.13,547.084 1628.17,670.89 1629.22,650.235 1630.26,632.112 
  1631.3,345.601 1632.34,663.198 1633.38,595.004 1634.43,588.092 1635.47,576.495 1636.51,727.333 1637.55,491.322 1638.6,618.342 1639.64,533.618 1640.68,581.064 
  1641.72,722.996 1642.77,866.726 1643.81,446.965 1644.85,454.47 1645.89,681.404 1646.93,796.694 1647.98,631.986 1649.02,708.325 1650.06,622.571 1651.1,475.11 
  1652.15,716.457 1653.19,648.773 1654.23,577.691 1655.27,761.773 1656.32,703.565 1657.36,722.799 1658.4,589.46 1659.44,703.681 1660.48,664.147 1661.53,615.861 
  1662.57,546.924 1663.61,743.621 1664.65,715.337 1665.7,689.308 1666.74,593.547 1667.78,567.794 1668.82,450.846 1669.86,536.714 1670.91,671.103 1671.95,648.01 
  1672.99,722.967 1674.03,580.418 1675.08,682.966 1676.12,603.968 1677.16,639.912 1678.2,534.041 1679.25,623.491 1680.29,670.473 1681.33,635.882 1682.37,722.54 
  1683.41,690.454 1684.46,442.492 1685.5,701.153 1686.54,655.037 1687.58,625.263 1688.63,641.012 1689.67,655.221 1690.71,690.205 1691.75,555.764 1692.79,568.728 
  1693.84,607.339 1694.88,677.212 1695.92,626.913 1696.96,675.822 1698.01,632.421 1699.05,630.877 1700.09,618.102 1701.13,633.274 1702.18,597.239 1703.22,608.967 
  1704.26,649.768 1705.3,665.658 1706.34,637.768 1707.39,597.582 1708.43,592.296 1709.47,431.662 1710.51,617.466 1711.56,641.152 1712.6,580.995 1713.64,653.725 
  1714.68,495.813 1715.73,595.155 1716.77,934.608 1717.81,112.258 1718.85,411.959 1719.89,783.003 1720.94,602.139 1721.98,570.893 1723.02,319.547 1724.06,758.206 
  1725.11,568.656 1726.15,809.051 1727.19,557.068 1728.23,676.165 1729.27,556.184 1730.32,792.625 1731.36,627.261 1732.4,255.015 1733.44,392.988 1734.49,732.74 
  1735.53,688.137 1736.57,548.901 1737.61,601.087 1738.66,830.069 1739.7,675.786 1740.74,664.717 1741.78,670.033 1742.82,694.086 1743.87,604.959 1744.91,675.56 
  1745.95,465.668 1746.99,527.651 1748.04,570.564 1749.08,423.367 1750.12,504.106 1751.16,480.071 1752.2,401.014 1753.25,424.981 1754.29,816.117 1755.33,414.21 
  1756.37,816.292 1757.42,507.692 1758.46,577.96 1759.5,708.637 1760.54,670.162 1761.59,510.677 1762.63,717.972 1763.67,691.626 1764.71,697.903 1765.75,322.836 
  1766.8,686.538 1767.84,643.055 1768.88,460.756 1769.92,786.423 1770.97,750.966 1772.01,591.08 1773.05,503.587 1774.09,463.436 1775.13,394.494 1776.18,633.854 
  1777.22,720.564 1778.26,878.144 1779.3,626.612 1780.35,574.261 1781.39,701.254 1782.43,739.077 1783.47,700.578 1784.52,672.009 1785.56,699.277 1786.6,789.665 
  1787.64,718.457 1788.68,397.388 1789.73,629.128 1790.77,809.915 1791.81,651.373 1792.85,506.553 1793.9,573.648 1794.94,614.564 1795.98,775.996 1797.02,585.947 
  1798.07,773.254 1799.11,704.923 1800.15,605.235 1801.19,629.763 1802.23,733.38 1803.28,463.765 1804.32,604.528 1805.36,624.819 1806.4,686.537 1807.45,774.374 
  1808.49,636.452 1809.53,608.968 1810.57,685.988 1811.61,741.161 1812.66,599.483 1813.7,673.388 1814.74,648.917 1815.78,693.493 1816.83,643.749 1817.87,618.641 
  1818.91,512.202 1819.95,628.229 1821,699.677 1822.04,625.635 1823.08,111.606 1824.12,683.592 1825.16,571.473 1826.21,710.922 1827.25,278.879 1828.29,491.936 
  1829.33,596.066 1830.38,682.042 1831.42,649.635 1832.46,675.015 1833.5,305.679 1834.54,740.022 1835.59,509.153 1836.63,768.887 1837.67,671.359 1838.71,855.393 
  1839.76,685.04 1840.8,783.262 1841.84,542.937 1842.88,705.599 1843.93,515.258 1844.97,700.406 1846.01,714.515 1847.05,707.428 1848.09,490.559 1849.14,573.221 
  1850.18,560.486 1851.22,511.99 1852.26,656.38 1853.31,484.857 1854.35,721.007 1855.39,691.518 1856.43,717.161 1857.48,749.935 1858.52,598.733 1859.56,506.191 
  1860.6,486.576 1861.64,665.762 1862.69,664.675 1863.73,765.035 1864.77,629.607 1865.81,680.817 1866.86,624.119 1867.9,552.843 1868.94,526.458 1869.98,614.562 
  1871.02,783.954 1872.07,709.864 1873.11,567.716 1874.15,724.356 1875.19,798.457 1876.24,764.483 1877.28,766.48 1878.32,632.344 1879.36,787.825 1880.41,530.936 
  1881.45,847.334 1882.49,541.378 1883.53,635.218 1884.57,642.55 1885.62,620.344 1886.66,743.368 1887.7,616.802 1888.74,579.404 1889.79,868.209 1890.83,742.716 
  1891.87,593.909 1892.91,585.03 1893.95,544.645 1895,783.507 1896.04,703.046 1897.08,653.313 1898.12,688.027 1899.17,690.567 1900.21,542.965 1901.25,570.785 
  1902.29,783.139 1903.34,596.174 1904.38,872.39 1905.42,686.083 1906.46,678.267 1907.5,660.941 1908.55,866.36 1909.59,681.335 1910.63,525.959 1911.67,516.473 
  1912.72,745.664 1913.76,689.786 1914.8,695.397 1915.84,704.964 1916.88,506.508 1917.93,627.834 1918.97,608.301 1920.01,519.872 1921.05,422.171 1922.1,631.651 
  1923.14,794.061 1924.18,762.862 1925.22,502.161 1926.27,610.13 1927.31,697.15 1928.35,610.897 1929.39,568.161 1930.43,724.911 1931.48,802.256 1932.52,626.15 
  1933.56,650.777 1934.6,535.329 1935.65,623.926 1936.69,596.179 1937.73,621.811 1938.77,671.904 1939.82,776.727 1940.86,710.505 1941.9,582.06 1942.94,853.459 
  1943.98,673.577 1945.03,583.959 1946.07,696.321 1947.11,503.057 1948.15,298.09 1949.2,605.522 1950.24,604.735 1951.28,710.287 1952.32,574.527 1953.36,569.569 
  1954.41,513.886 1955.45,603.863 1956.49,725.926 1957.53,722.603 1958.58,615.86 1959.62,666.359 1960.66,699.215 1961.7,644.539 1962.75,406.886 1963.79,323.412 
  1964.83,867.178 1965.87,744.994 1966.91,424.882 1967.96,707.678 1969,603.077 1970.04,684.02 1971.08,597.353 1972.13,467.812 1973.17,847.935 1974.21,1403.58 
  1975.25,468.936 1976.29,578.297 1977.34,705.369 1978.38,548.895 1979.42,386.324 1980.46,517.133 1981.51,714.434 1982.55,574.107 1983.59,485.855 1984.63,671.006 
  1985.68,686.265 1986.72,604.873 1987.76,642.421 1988.8,731.31 1989.84,547.147 1990.89,704.332 1991.93,558.023 1992.97,540.864 1994.01,522.349 1995.06,663.128 
  1996.1,645.054 1997.14,573.467 1998.18,630.715 1999.23,630.951 2000.27,461.846 2001.31,624.443 2002.35,580.805 2003.39,567.533 2004.44,653.862 2005.48,673.63 
  2006.52,715.463 2007.56,668.431 2008.61,695.318 2009.65,730.153 2010.69,625.184 2011.73,554.966 2012.77,649.977 2013.82,547.203 2014.86,538.063 2015.9,593.96 
  2016.94,603.954 2017.99,590.409 2019.03,564.827 2020.07,526.235 2021.11,597.745 2022.16,681.916 2023.2,686.047 2024.24,611.587 2025.28,619.359 2026.32,606.76 
  2027.37,542.007 2028.41,663.784 2029.45,735.322 2030.49,728.183 2031.54,546.807 2032.58,656.955 2033.62,717.453 2034.66,756.568 2035.7,658.222 2036.75,709.751 
  2037.79,668.238 2038.83,641.105 2039.87,588.198 2040.92,673.572 2041.96,756.259 2043,643.518 2044.04,651.65 2045.09,489.795 2046.13,607.89 2047.17,620.734 
  2048.21,550.669 2049.25,650.695 2050.3,599.79 2051.34,689.17 2052.38,681.328 2053.42,698.005 2054.47,606.449 2055.51,612.842 2056.55,526.353 2057.59,531.52 
  2058.64,662.884 2059.68,616.648 2060.72,631.451 2061.76,611.689 2062.8,623.673 2063.85,635.414 2064.89,675.048 2065.93,651.859 2066.97,697.028 2068.02,626.821 
  2069.06,617.077 2070.1,655.621 2071.14,698.077 2072.18,627.089 2073.23,701.021 2074.27,645.835 2075.31,553.857 2076.35,613.143 2077.4,643.586 2078.44,632.176 
  2079.48,595.718 2080.52,636.223 2081.57,655.737 2082.61,713.342 2083.65,622.986 2084.69,591.324 2085.73,647.698 2086.78,648.539 2087.82,669.687 2088.86,592.391 
  2089.9,612.091 2090.95,712.185 2091.99,653.512 2093.03,668.803 2094.07,715.063 2095.11,664.457 2096.16,702.277 2097.2,797.537 2098.24,570.253 2099.28,630.961 
  2100.33,619.659 2101.37,686.202 2102.41,670.914 2103.45,644.397 2104.5,638.015 2105.54,673.847 2106.58,683.573 2107.62,640.645 2108.66,538.607 2109.71,593.584 
  2110.75,654.35 2111.79,747.564 2112.83,607.784 2113.88,571.741 2114.92,491.01 2115.96,554.332 2117,615.445 2118.04,728.356 2119.09,569.038 2120.13,992.573 
  2121.17,222.966 2122.21,645.199 2123.26,656.67 2124.3,792.053 2125.34,553.137 2126.38,643.343 2127.43,640.797 2128.47,501.115 2129.51,670.541 2130.55,684.082 
  2131.59,684.497 2132.64,635.255 2133.68,626.367 2134.72,597.434 2135.76,558.216 2136.81,619.027 2137.85,576.274 2138.89,720.041 2139.93,701.691 2140.98,553.514 
  2142.02,613.229 2143.06,601.863 2144.1,632.961 2145.14,545.933 2146.19,627.688 2147.23,648.473 2148.27,540.71 2149.31,547.279 2150.36,620.12 2151.4,627.314 
  2152.44,694.71 2153.48,679.348 2154.52,615.503 2155.57,591.678 2156.61,600.799 2157.65,667.13 2158.69,724.595 2159.74,644.178 2160.78,640.894 2161.82,615.98 
  2162.86,673.108 2163.91,671.29 2164.95,647.128 2165.99,597.574 2167.03,614.278 2168.07,633.476 2169.12,662.242 2170.16,661.554 2171.2,698.024 2172.24,605.702 
  2173.29,623.091 2174.33,646.776 2175.37,669.665 2176.41,606.171 2177.45,538.586 2178.5,595.49 2179.54,612.563 2180.58,625.459 2181.62,654.545 2182.67,635.198 
  2183.71,649.604 2184.75,609.998 2185.79,628.349 2186.84,575.177 2187.88,624.157 2188.92,591.343 2189.96,636.649 2191,645.527 2192.05,625.486 2193.09,678.253 
  2194.13,636.337 2195.17,561.476 2196.22,941.438 2197.26,576.047 2198.3,541.536 2199.34,533.529 2200.39,614.499 2201.43,696.465 2202.47,691.234 2203.51,554.251 
  2204.55,640.812 2205.6,659.344 2206.64,652.343 2207.68,640.949 2208.72,660.62 2209.77,610.29 2210.81,635.954 2211.85,570.273 2212.89,574.848 2213.93,581.334 
  2214.98,648.195 2216.02,573.838 2217.06,572.247 2218.1,684.081 2219.15,611.759 2220.19,713.446 2221.23,567.882 2222.27,596.581 2223.32,662.312 2224.36,633.851 
  2225.4,634.283 2226.44,617.446 2227.48,645.217 2228.53,608.407 2229.57,647.592 2230.61,655.718 2231.65,594.493 2232.7,537.21 2233.74,603.869 2234.78,710.478 
  2235.82,680.536 2236.86,686.708 2237.91,550.077 2238.95,638.248 2239.99,641.846 2241.03,549.285 2242.08,658.069 2243.12,683.021 2244.16,625.416 2245.2,662.268 
  2246.25,603.097 2247.29,649.307 2248.33,667.344 2249.37,612.901 2250.41,558.776 2251.46,660.616 2252.5,626.182 2253.54,618.6 2254.58,636.508 2255.63,632.448 
  2256.67,622.916 2257.71,598.041 2258.75,632.807 2259.79,622.098 2260.84,572.243 2261.88,591.674 2262.92,556.525 2263.96,628.19 2265.01,422.491 2266.05,706.831 
  2267.09,582.29 2268.13,631.418 2269.18,649.63 2270.22,752.299 2271.26,519.084 2272.3,632.107 2273.34,590.891 2274.39,616.795 2275.43,644.874 2276.47,557.969 
  2277.51,654.306 2278.56,745.105 2279.6,573.287 2280.64,732.029 2281.68,755.295 2282.73,555.1 2283.77,619.876 2284.81,661.751 2285.85,516.449 2286.89,533.385 
  2287.94,625.254 2288.98,604.095 2290.02,576.46 2291.06,760.97 
  "/>
<polyline clip-path="url(#clip422)" style="stroke:#800080; stroke-width:4; stroke-opacity:1; fill:none" points="
  234.646,443.207 235.688,456.199 236.73,468.624 237.773,479.083 238.815,483.898 239.857,488.834 240.899,492.906 241.942,497.651 242.984,504.091 244.026,500.219 
  245.068,483.11 246.111,487.45 247.153,494.891 248.195,501.413 249.238,507.478 250.28,512.559 251.322,516.593 252.364,519.803 253.407,521.633 254.449,523.769 
  255.491,522.549 256.534,519.486 257.576,505.187 258.618,509.582 259.66,511.991 260.703,514.186 261.745,510.278 262.787,510.224 263.83,514.892 264.872,516.079 
  265.914,517.362 266.956,501.095 267.999,505.118 269.041,496.676 270.083,497.135 271.125,439.682 272.168,357.204 273.21,364.594 274.252,342.663 275.295,358.166 
  276.337,376.125 277.379,397.058 278.421,413.215 279.464,371.446 280.506,393.584 281.548,387.54 282.591,373.841 283.633,394.624 284.675,411.774 285.717,415.682 
  286.76,433.32 287.802,434.071 288.844,446.79 289.887,453.493 290.929,444.624 291.971,451.509 293.013,463.51 294.056,463.098 295.098,465.151 296.14,474.886 
  297.182,474.339 298.225,471.547 299.267,449.754 300.309,463.112 301.352,466.004 302.394,470.26 303.436,474.792 304.478,484.412 305.521,492.309 306.563,499.452 
  307.605,494.513 308.648,501.652 309.69,504.535 310.732,509.701 311.774,511.762 312.817,515.145 313.859,516.151 314.901,518.247 315.944,475.076 316.986,484.979 
  318.028,492.546 319.07,498.668 320.113,497.074 321.155,476.457 322.197,483.9 323.239,492.445 324.282,426.985 325.324,421.846 326.366,431.057 327.409,430.393 
  328.451,445.672 329.493,454.436 330.535,466.987 331.578,456.373 332.62,463.972 333.662,475.397 334.705,430.334 335.747,433.797 336.789,449.098 337.831,432.718 
  338.874,444.889 339.916,458.728 340.958,454.117 342,456.289 343.043,466.084 344.085,473.939 345.127,477.428 346.17,486.607 347.212,494.057 348.254,501.263 
  349.296,506.961 350.339,505.736 351.381,504.492 352.423,492.569 353.466,496.309 354.508,499.666 355.55,505.875 356.592,494.567 357.635,494.632 358.677,497.958 
  359.719,502.278 360.762,507.791 361.804,511.561 362.846,515.089 363.888,517.173 364.931,492.61 365.973,493.923 367.015,449.769 368.057,438.804 369.1,444.69 
  370.142,454.255 371.184,464.299 372.227,418.439 373.269,430.055 374.311,439.311 375.353,445.752 376.396,456.477 377.438,461.018 378.48,472.809 379.523,481.397 
  380.565,456.933 381.607,447.113 382.649,459.543 383.692,464.09 384.734,474.074 385.776,481.677 386.819,490.539 387.861,496.357 388.903,502.851 389.945,508.712 
  390.988,501.33 392.03,489.278 393.072,497.14 394.114,498.314 395.157,491.905 396.199,498.429 397.241,503.818 398.284,509.496 399.326,513.989 400.368,451.222 
  401.41,462.683 402.453,445.358 403.495,454.648 404.537,461.513 405.58,473.273 406.622,480.338 407.664,485.708 408.706,494.073 409.749,500.317 410.791,500.123 
  411.833,498.637 412.876,461.286 413.918,471.844 414.96,463 416.002,473.048 417.045,480.321 418.087,390.159 419.129,358 420.171,382.462 421.214,390.348 
  422.256,272.437 423.298,303.1 424.341,333.488 425.383,350.517 426.425,374.816 427.467,345.606 428.51,322.548 429.552,350.488 430.594,375.811 431.637,398.152 
  432.679,417.901 433.721,425.317 434.763,438.561 435.806,445.824 436.848,459.678 437.89,471.601 438.933,446.638 439.975,409.935 441.017,373.08 442.059,361.776 
  443.102,383.432 444.144,403.854 445.186,422.034 446.228,416.627 447.271,434.16 448.313,449.345 449.355,457.221 450.398,468.922 451.44,479.732 452.482,488.008 
  453.524,490.657 454.567,480.91 455.609,488.948 456.651,468.443 457.694,476.36 458.736,481.967 459.778,488.393 460.82,496.458 461.863,502.712 462.905,499.853 
  463.947,506.206 464.989,510.315 466.032,402.3 467.074,421.536 468.116,435.014 469.159,447.597 470.201,459.462 471.243,453.706 472.285,453.658 473.328,466.51 
  474.37,477.479 475.412,486.771 476.455,483.489 477.497,491.981 478.539,473.957 479.581,478.028 480.624,478.457 481.666,487.543 482.708,494.566 483.751,495.025 
  484.793,437.601 485.835,445.527 486.877,435.253 487.92,403.688 488.962,410.096 490.004,421.793 491.046,425.957 492.089,437.87 493.131,450.205 494.173,459.743 
  495.216,462.774 496.258,471.985 497.3,474.156 498.342,461.271 499.385,368.886 500.427,372.459 501.469,393.99 502.512,412.838 503.554,429.698 504.596,443.654 
  505.638,451.917 506.681,464.853 507.723,461.933 508.765,450.89 509.808,459.689 510.85,442.394 511.892,433.692 512.934,420.195 513.977,430.149 515.019,443.778 
  516.061,456.714 517.103,467.087 518.146,475.876 519.188,475.096 520.23,449.675 521.273,430.989 522.315,443.605 523.357,454.889 524.399,466.147 525.442,458.726 
  526.484,465.277 527.526,476.418 528.569,468.98 529.611,476.608 530.653,482.698 531.695,489.061 532.738,434.903 533.78,449.078 534.822,458.655 535.865,450.942 
  536.907,460.543 537.949,457.057 538.991,469.342 540.034,479.472 541.076,476.055 542.118,482.196 543.16,490.372 544.203,490.182 545.245,491.402 546.287,496.471 
  547.33,436.384 548.372,335.366 549.414,362.337 550.456,383.316 551.499,390.347 552.541,407.096 553.583,422.222 554.626,396.813 555.668,415.277 556.71,427.987 
  557.752,389.254 558.795,410.077 559.837,428.207 560.879,444.083 561.921,456.653 562.964,469.094 564.006,449.053 565.048,450.48 566.091,442.777 567.133,456.755 
  568.175,457.611 569.217,453.007 570.26,464.438 571.302,470.912 572.344,462.631 573.387,474.099 574.429,299.267 575.471,328.628 576.513,284.306 577.556,307.765 
  578.598,337.836 579.64,351.273 580.683,368.429 581.725,387.725 582.767,407.255 583.809,425.801 584.852,442.125 585.894,437.069 586.936,444.639 587.978,457.955 
  589.021,460.7 590.063,471.932 591.105,482.257 592.148,485.335 593.19,488.009 594.232,496.12 595.274,501.702 596.317,472.135 597.359,480.085 598.401,488.295 
  599.444,461.298 600.486,435.214 601.528,439.17 602.57,452.057 603.613,464.159 604.655,474.763 605.697,466.894 606.74,457.234 607.782,453.844 608.824,433.963 
  609.866,449.274 610.909,457.727 611.951,452.357 612.993,461.121 614.035,472.977 615.078,461.658 616.12,473.062 617.162,465.326 618.205,471.844 619.247,481.412 
  620.289,454.98 621.331,466.522 622.374,477.582 623.416,478.297 624.458,330.094 625.501,286.769 626.543,312.924 627.585,342.22 628.627,368.484 629.67,373.678 
  630.712,390.795 631.754,407.832 632.797,425.47 633.839,437.587 634.881,450.97 635.923,464.136 636.966,468.749 638.008,465.62 639.05,475.681 640.092,374.078 
  641.135,270.23 642.177,235.474 643.219,269.58 644.262,284.468 645.304,297.687 646.346,299.19 647.388,328.563 648.431,347.067 649.473,360.905 650.515,378.628 
  651.558,400.541 652.6,416.975 653.642,433.598 654.684,448.722 655.727,461.829 656.769,472.812 657.811,480.775 658.854,483.06 659.896,488.183 660.938,489.567 
  661.98,497.447 663.023,473.074 664.065,479.068 665.107,488.104 666.149,495.074 667.192,483.992 668.234,422.976 669.276,437.232 670.319,435.802 671.361,437.237 
  672.403,381.513 673.445,382.911 674.488,401.642 675.53,417.342 676.572,428.349 677.615,433.648 678.657,447.688 679.699,453.949 680.741,458.452 681.784,391.396 
  682.826,261.28 683.868,290.103 684.91,307.532 685.953,330.6 686.995,358.161 688.037,378.823 689.08,400.015 690.122,419.429 691.164,435.462 692.206,449.958 
  693.249,461.997 694.291,473.656 695.333,481.425 696.376,454.376 697.418,459.281 698.46,454.965 699.502,453.993 700.545,451.815 701.587,463.514 702.629,471.826 
  703.672,451.654 704.714,464.658 705.756,469.997 706.798,480.287 707.841,489.5 708.883,459.378 709.925,467.939 710.967,477.644 712.01,484.839 713.052,468.959 
  714.094,478.927 715.137,472.751 716.179,458.442 717.221,470.63 718.263,466.862 719.306,477.937 720.348,484.904 721.39,490.898 722.433,473.312 723.475,479.453 
  724.517,463.14 725.559,466.108 726.602,477.206 727.644,476.401 728.686,483.749 729.729,448.377 730.771,461.132 731.813,472.37 732.855,472.312 733.898,481.106 
  734.94,446.844 735.982,400.164 737.024,407.05 738.067,403.785 739.109,417.806 740.151,433.688 741.194,439.33 742.236,411.516 743.278,429.667 744.32,445.189 
  745.363,458.765 746.405,449.449 747.447,432.038 748.49,436.954 749.532,450.357 750.574,461.515 751.616,468.74 752.659,442.28 753.701,451.84 754.743,422.323 
  755.786,430.694 756.828,439.037 757.87,453.692 758.912,464.483 759.955,464.78 760.997,474.923 762.039,474.824 763.081,350.126 764.124,371.31 765.166,273.446 
  766.208,291.564 767.251,200.299 768.293,110.688 769.335,87.7763 770.377,129.281 771.42,170.868 772.462,141.838 773.504,185.271 774.547,195.035 775.589,217.208 
  776.631,254.509 777.673,286.953 778.716,319.395 779.758,335.84 780.8,352.1 781.842,362.352 782.885,331.506 783.927,342.055 784.969,351.182 786.012,362.408 
  787.054,386.313 788.096,389.79 789.138,383.897 790.181,312.255 791.223,305.035 792.265,195.678 793.308,237.53 794.35,164.338 795.392,208.802 796.434,242.161 
  797.477,229.775 798.519,257.197 799.561,228.685 800.604,235.696 801.646,272.128 802.688,264.08 803.73,289.379 804.773,252.726 805.815,270.683 806.857,300.872 
  807.899,260.133 808.942,268.274 809.984,242.326 811.026,278.652 812.069,297.104 813.111,225.966 814.153,264.16 815.195,278.005 816.238,276.794 817.28,266.884 
  818.322,215.535 819.365,251.875 820.407,287.07 821.449,310.475 822.491,315.947 823.534,256.551 824.576,288.253 825.618,319.728 826.661,287.035 827.703,318.289 
  828.745,347.249 829.787,309.46 830.83,336.469 831.872,345.421 832.914,368.947 833.956,380.376 834.999,388.329 836.041,342.136 837.083,361.889 838.126,352.106 
  839.168,377.06 840.21,399.198 841.252,415.5 842.295,432.751 843.337,448.221 844.379,444.039 845.422,442.581 846.464,456.037 847.506,463.686 848.548,445.049 
  849.591,458.972 850.633,467.746 851.675,477.72 852.718,440.345 853.76,420.876 854.802,412.323 855.844,427.149 856.887,427.083 857.929,437.219 858.971,416.979 
  860.013,432.828 861.056,441.342 862.098,441.923 863.14,451.079 864.183,464.248 865.225,469.05 866.267,474.726 867.309,480.047 868.352,487.179 869.394,494.929 
  870.436,494.722 871.479,500.383 872.521,506.649 873.563,509.998 874.605,501.218 875.648,507.194 876.69,494.494 877.732,499.371 878.774,503.669 879.817,474.945 
  880.859,482.334 881.901,332.015 882.944,342.961 883.986,351.259 885.028,376.457 886.07,358.666 887.113,335.272 888.155,357.05 889.197,381.102 890.24,396.56 
  891.282,399.463 892.324,303.5 893.366,330.768 894.409,325.139 895.451,271.91 896.493,297.393 897.536,261.234 898.578,187.172 899.62,195.901 900.662,193.663 
  901.705,231.334 902.747,248.477 903.789,228.852 904.831,267.632 905.874,300.31 906.916,311.647 907.958,337.627 909.001,360.169 910.043,381.113 911.085,399.705 
  912.127,403.815 913.17,381.115 914.212,384.512 915.254,395.025 916.297,414.943 917.339,422.21 918.381,437.142 919.423,423.239 920.466,439.764 921.508,453.046 
  922.55,414.948 923.593,431.782 924.635,404.35 925.677,406.013 926.719,424.42 927.762,421.8 928.804,431.556 929.846,390.524 930.888,333.18 931.931,348.154 
  932.973,362.77 934.015,384.489 935.058,405.211 936.1,422.139 937.142,377.349 938.184,385.676 939.227,395.291 940.269,415.151 941.311,381.673 942.354,397.181 
  943.396,387.935 944.438,385.525 945.48,329.746 946.523,353.726 947.565,378.678 948.607,367.965 949.65,388.676 950.692,402.207 951.734,420.979 952.776,414.563 
  953.819,427.354 954.861,380.651 955.903,388.182 956.945,408.799 957.988,396.336 959.03,415.547 960.072,419.995 961.115,426.012 962.157,405.291 963.199,287.341 
  964.241,257.275 965.284,268.527 966.326,285.308 967.368,294.818 968.411,322.933 969.453,349.662 970.495,354.524 971.537,309.291 972.58,324.911 973.622,352.986 
  974.664,377.898 975.707,400.053 976.749,336.488 977.791,351.785 978.833,366.208 979.876,370.507 980.918,393.187 981.96,413.154 983.002,431.102 984.045,397.147 
  985.087,410.225 986.129,416.167 987.172,430.911 988.214,416.139 989.256,431.172 990.298,444.596 991.341,433.904 992.383,435.384 993.425,421.011 994.468,437.016 
  995.51,438.828 996.552,429.093 997.594,439.77 998.637,454.327 999.679,449.255 1000.72,433.143 1001.76,448.614 1002.81,430.854 1003.85,446.502 1004.89,460.284 
  1005.93,447.042 1006.97,454.735 1008.02,466.991 1009.06,477.62 1010.1,486.824 1011.14,491.374 1012.19,440.189 1013.23,411.906 1014.27,403.358 1015.31,391.828 
  1016.36,412.294 1017.4,422.939 1018.44,402.35 1019.48,398.153 1020.52,383.787 1021.57,394.158 1022.61,413.43 1023.65,347.19 1024.69,372.51 1025.74,367.761 
  1026.78,388.331 1027.82,391.756 1028.86,394.363 1029.91,379.577 1030.95,372.533 1031.99,393.823 1033.03,334.766 1034.07,361.529 1035.12,380.03 1036.16,379.956 
  1037.2,398.863 1038.24,418.483 1039.29,389.691 1040.33,391.575 1041.37,401.269 1042.41,413.954 1043.45,384.705 1044.5,363.888 1045.54,386.859 1046.58,391.343 
  1047.62,379.901 1048.67,374.974 1049.71,397.45 1050.75,353.727 1051.79,370.255 1052.84,310.827 1053.88,340.337 1054.92,348.145 1055.96,355.871 1057,358.535 
  1058.05,366.733 1059.09,381.139 1060.13,351.401 1061.17,363.253 1062.22,381.846 1063.26,387.946 1064.3,407.579 1065.34,424.56 1066.38,438.445 1067.43,448.24 
  1068.47,439.175 1069.51,441.35 1070.55,430.811 1071.6,444.082 1072.64,441.29 1073.68,381.776 1074.72,401.615 1075.77,410.903 1076.81,428.855 1077.85,420.696 
  1078.89,437.443 1079.93,451.891 1080.98,458.116 1082.02,461.54 1083.06,472.625 1084.1,478.989 1085.15,487.674 1086.19,490.335 1087.23,493.696 1088.27,491.703 
  1089.31,499.265 1090.36,505.547 1091.4,510.941 1092.44,498.143 1093.48,502.906 1094.53,489.706 1095.57,497.555 1096.61,466.88 1097.65,453.845 1098.7,466.077 
  1099.74,475.149 1100.78,484.965 1101.82,492.017 1102.86,496.583 1103.91,503.347 1104.95,506.802 1105.99,475.359 1107.03,453.721 1108.08,445.025 1109.12,440.596 
  1110.16,454.951 1111.2,455.375 1112.25,463.068 1113.29,473.822 1114.33,478.075 1115.37,467.695 1116.41,478.157 1117.46,483.771 1118.5,492.138 1119.54,499.566 
  1120.58,484.437 1121.63,451.181 1122.67,446.26 1123.71,435.434 1124.75,450.622 1125.79,462.637 1126.84,435.681 1127.88,419.492 1128.92,428.223 1129.96,442.58 
  1131.01,456.689 1132.05,466.843 1133.09,467.702 1134.13,477.33 1135.18,477.951 1136.22,487.265 1137.26,493.145 1138.3,500.218 1139.34,500.88 1140.39,503.126 
  1141.43,503.735 1142.47,500.662 1143.51,501.717 1144.56,494.214 1145.6,497.521 1146.64,504.151 1147.68,495.91 1148.72,498.007 1149.77,504.586 1150.81,510.177 
  1151.85,496.659 1152.89,496.319 1153.94,498.334 1154.98,494.992 1156.02,500.617 1157.06,505.87 1158.11,509.012 1159.15,507.83 1160.19,502.789 1161.23,502.952 
  1162.27,508.128 1163.32,512.536 1164.36,509.518 1165.4,512.228 1166.44,516.121 1167.49,517.74 1168.53,517.246 1169.57,505.957 1170.61,499.703 1171.66,501.77 
  1172.7,502.803 1173.74,504.685 1174.78,497.276 1175.82,503.19 1176.87,508.777 1177.91,512.679 1178.95,516.482 1179.99,519.132 1181.04,518.428 1182.08,516.078 
  1183.12,519.523 1184.16,520.846 1185.2,523.694 1186.25,519.062 1187.29,519.249 1188.33,522.465 1189.37,524.215 1190.42,526.516 1191.46,494.51 1192.5,493.789 
  1193.54,486.428 1194.59,494.766 1195.63,501.291 1196.67,505.798 1197.71,510.119 1198.75,511.829 1199.8,516.232 1200.84,519.569 1201.88,522.6 1202.92,524.977 
  1203.97,524.278 1205.01,526.615 1206.05,527.618 1207.09,528.998 1208.13,530.171 1209.18,520.024 1210.22,517.322 1211.26,518.147 1212.3,505.762 1213.35,508.514 
  1214.39,512.554 1215.43,516.497 1216.47,519.95 1217.52,513.487 1218.56,513.679 1219.6,516.078 1220.64,519.05 1221.68,510.535 1222.73,515.144 1223.77,518.372 
  1224.81,518.183 1225.85,508.78 1226.9,508.249 1227.94,513.25 1228.98,502.709 1230.02,508.577 1231.07,510.617 1232.11,505.677 1233.15,510.527 1234.19,514.598 
  1235.23,514.07 1236.28,518.066 1237.32,521 1238.36,523.2 1239.4,525.068 1240.45,527.269 1241.49,528.404 1242.53,529.474 1243.57,530.875 1244.61,531.779 
  1245.66,532.608 1246.7,532.95 1247.74,533.688 1248.78,534.248 1249.83,534.642 1250.87,528.131 1251.91,524.174 1252.95,523.14 1254,516.303 1255.04,509.231 
  1256.08,512.697 1257.12,516.675 1258.16,486.961 1259.21,494.546 1260.25,500.081 1261.29,498.682 1262.33,484.658 1263.38,492.578 1264.42,499.668 1265.46,499.844 
  1266.5,505.745 1267.54,510.591 1268.59,513.419 1269.63,516.762 1270.67,518.978 1271.71,516.62 1272.76,519.564 1273.8,522.73 1274.84,525.061 1275.88,527.221 
  1276.93,523.459 1277.97,516.164 1279.01,513.49 1280.05,514.457 1281.09,518.489 1282.14,521.498 1283.18,516.64 1284.22,510.296 1285.26,514.975 1286.31,518.897 
  1287.35,519.867 1288.39,522.146 1289.43,524.864 1290.47,527.021 1291.52,527.442 1292.56,528.843 1293.6,527.49 1294.64,528.633 1295.69,527.874 1296.73,527.729 
  1297.77,527.107 1298.81,528.947 1299.86,529.856 1300.9,531.186 1301.94,532.11 1302.98,531.4 1304.02,527.018 1305.07,528.88 1306.11,528.578 1307.15,529.582 
  1308.19,435.831 1309.24,382.318 1310.28,397.122 1311.32,416.663 1312.36,433.067 1313.41,444.928 1314.45,458.553 1315.49,469.387 1316.53,476.756 1317.57,485.178 
  1318.62,492.44 1319.66,499.819 1320.7,488.826 1321.74,496.803 1322.79,430.505 1323.83,439.526 1324.87,428.474 1325.91,443.624 1326.95,448.624 1328,453.288 
  1329.04,463.503 1330.08,474.972 1331.12,482.079 1332.17,481.726 1333.21,485.391 1334.25,493.861 1335.29,498.962 1336.34,489.268 1337.38,467.586 1338.42,478.36 
  1339.46,486.614 1340.5,493.706 1341.55,500.508 1342.59,503.807 1343.63,503.674 1344.67,509.427 1345.72,510.819 1346.76,509.591 1347.8,511.622 1348.84,513.258 
  1349.88,515.26 1350.93,516.149 1351.97,459.978 1353.01,471.39 1354.05,481.825 1355.1,476.253 1356.14,474.956 1357.18,478.402 1358.22,479.386 1359.27,488.486 
  1360.31,493.83 1361.35,498.185 1362.39,502.931 1363.43,506.319 1364.48,503.559 1365.52,508.177 1366.56,406.305 1367.6,331.729 1368.65,359.113 1369.69,383.418 
  1370.73,378.325 1371.77,400.4 1372.82,419.767 1373.86,417.803 1374.9,428.431 1375.94,441.737 1376.98,453.266 1378.03,465.055 1379.07,474.625 1380.11,481.966 
  1381.15,484.909 1382.2,489.709 1383.24,452.119 1384.28,463.807 1385.32,474.984 1386.36,483.74 1387.41,471.172 1388.45,467.273 1389.49,463.643 1390.53,418.635 
  1391.58,435.148 1392.62,449.846 1393.66,458.435 1394.7,459.833 1395.75,469.837 1396.79,479.185 1397.83,488.425 1398.87,472.583 1399.91,477.639 1400.96,463.917 
  1402,448.976 1403.04,445.564 1404.08,428.901 1405.13,444.25 1406.17,458.229 1407.21,423.723 1408.25,439.07 1409.29,453.799 1410.34,466.073 1411.38,474.986 
  1412.42,474.819 1413.46,484.587 1414.51,491.995 1415.55,451.984 1416.59,462.702 1417.63,465.789 1418.68,471.282 1419.72,480.634 1420.76,481.42 1421.8,488.398 
  1422.84,442.463 1423.89,432.049 1424.93,446.668 1425.97,442.604 1427.01,424.786 1428.06,390.593 1429.1,404.02 1430.14,420.377 1431.18,437.446 1432.22,451.923 
  1433.27,410.422 1434.31,428.514 1435.35,414.388 1436.39,431.342 1437.44,445.931 1438.48,459.59 1439.52,469.972 1440.56,477.766 1441.61,487.35 1442.65,483.201 
  1443.69,491.665 1444.73,492.359 1445.77,495.393 1446.82,502.067 1447.86,507.002 1448.9,508.317 1449.94,508.893 1450.99,503.284 1452.03,477.468 1453.07,486.735 
  1454.11,495.04 1455.16,498.225 1456.2,498.546 1457.24,503.412 1458.28,508.775 1459.32,501.226 1460.37,502.223 1461.41,504.931 1462.45,507.534 1463.49,512.288 
  1464.54,516.676 1465.58,517.64 1466.62,502.466 1467.66,507.991 1468.7,484.809 1469.75,410.576 1470.79,417.286 1471.83,427.983 1472.87,443.041 1473.92,457.236 
  1474.96,465.49 1476,476.167 1477.04,473.909 1478.09,484.005 1479.13,492.53 1480.17,492.179 1481.21,498.635 1482.25,504.789 1483.3,498.985 1484.34,504.628 
  1485.38,509.71 1486.42,514.501 1487.47,518.177 1488.51,517.244 1489.55,517.838 1490.59,520.871 1491.63,521.961 1492.68,521.172 1493.72,523.707 1494.76,518.785 
  1495.8,391.115 1496.85,409.615 1497.89,419.285 1498.93,435.034 1499.97,450.146 1501.02,454.851 1502.06,465.01 1503.1,470.601 1504.14,481.154 1505.18,441.937 
  1506.23,452.752 1507.27,460.498 1508.31,460.16 1509.35,472.134 1510.4,453.633 1511.44,459.203 1512.48,471.093 1513.52,473.138 1514.57,482.657 1515.61,490.174 
  1516.65,497.911 1517.69,503.885 1518.73,463.006 1519.78,472.684 1520.82,470.979 1521.86,481.436 1522.9,490.474 1523.95,497.884 1524.99,504.098 1526.03,494.064 
  1527.07,479.766 1528.11,487.838 1529.16,485.558 1530.2,492.067 1531.24,495.004 1532.28,502.036 1533.33,482.71 1534.37,487.158 1535.41,467.963 1536.45,466.604 
  1537.5,468.87 1538.54,479.298 1539.58,487.115 1540.62,492.785 1541.66,487.219 1542.71,494.679 1543.75,496.918 1544.79,484.718 1545.83,481.455 1546.88,486.904 
  1547.92,494.22 1548.96,501.396 1550,493.428 1551.04,500.741 1552.09,490.808 1553.13,497.243 1554.17,502.664 1555.21,502.196 1556.26,507.793 1557.3,395.696 
  1558.34,409.154 1559.38,422.609 1560.43,387.336 1561.47,407.445 1562.51,426.093 1563.55,420.707 1564.59,429.21 1565.64,434.422 1566.68,445.51 1567.72,456.999 
  1568.76,467.932 1569.81,476.35 1570.85,484.074 1571.89,488.123 1572.93,474.298 1573.98,483.797 1575.02,490.4 1576.06,497.309 1577.1,503.961 1578.14,501.552 
  1579.19,504.933 1580.23,493.547 1581.27,486.45 1582.31,493.068 1583.36,491.21 1584.4,458.752 1585.44,461.948 1586.48,473.695 1587.52,483.18 1588.57,491.86 
  1589.61,499.41 1590.65,480.626 1591.69,480.552 1592.74,481.674 1593.78,487.291 1594.82,486.914 1595.86,486.016 1596.91,494.352 1597.95,500.755 1598.99,505.893 
  1600.03,509.17 1601.07,513.485 1602.12,517.41 1603.16,520.837 1604.2,523.176 1605.24,525.036 1606.29,521.977 1607.33,523.626 1608.37,526.08 1609.41,526.928 
  1610.45,528.683 1611.5,527.534 1612.54,529.185 1613.58,530.181 1614.62,529.297 1615.67,506.139 1616.71,501.595 1617.75,496.2 1618.79,500.682 1619.84,494.653 
  1620.88,498.517 1621.92,504.4 1622.96,461.722 1624,473.469 1625.05,482.867 1626.09,474.302 1627.13,481.908 1628.17,480.811 1629.22,487.665 1630.26,495.279 
  1631.3,502.323 1632.34,409.933 1633.38,427.234 1634.43,442.019 1635.47,454.189 1636.51,463.237 1637.55,462.987 1638.6,450.529 1639.64,463.587 1640.68,462.941 
  1641.72,471.269 1642.77,470.468 1643.81,417.71 1644.85,401.993 1645.89,392.415 1646.93,410.477 1647.98,402.382 1649.02,421.64 1650.06,432.245 1651.1,447.759 
  1652.15,433.846 1653.19,441.124 1654.23,455.231 1655.27,464.282 1656.32,454.405 1657.36,460.654 1658.4,461.946 1659.44,471.424 1660.48,474.749 1661.53,483.221 
  1662.57,491.684 1663.61,488.537 1664.65,478.316 1665.7,477.908 1666.74,482.669 1667.78,489.472 1668.82,491.289 1669.86,455.149 1670.91,456.84 1671.95,467.24 
  1672.99,477.894 1674.03,475.764 1675.08,482.003 1676.12,487.07 1677.16,494.202 1678.2,501.287 1679.25,492.5 1680.29,499.867 1681.33,503.677 1682.37,509.401 
  1683.41,500.269 1684.46,500.834 1685.5,457.433 1686.54,463.605 1687.58,474.379 1688.63,484.388 1689.67,492.886 1690.71,499.375 1691.75,500.156 1692.79,497.336 
  1693.84,497.859 1694.88,503.589 1695.92,505.803 1696.96,511.2 1698.01,512.232 1699.05,516.627 1700.09,520.298 1701.13,523.02 1702.18,525.59 1703.22,525.433 
  1704.26,526.605 1705.3,527.853 1706.34,527.172 1707.39,528.927 1708.43,528.157 1709.47,526.776 1710.51,466.785 1711.56,477.632 1712.6,487.092 1713.64,491.553 
  1714.68,498.356 1715.73,477.747 1716.77,485.476 1717.81,392.325 1718.85,231.852 1719.89,243.66 1720.94,267.435 1721.98,301.489 1723.02,329.811 1724.06,291.741 
  1725.11,312.947 1726.15,339.71 1727.19,342.53 1728.23,364.453 1729.27,386.448 1730.32,402.444 1731.36,397.287 1732.4,417.142 1733.44,319.141 1734.49,309.103 
  1735.53,331.848 1736.57,356.819 1737.61,375.856 1738.66,397.448 1739.7,381.843 1740.74,401.73 1741.78,419.959 1742.82,435.474 1743.87,446.168 1744.91,459.164 
  1745.95,468.749 1746.99,445.84 1748.04,447.197 1749.08,456.472 1750.12,420.845 1751.16,421.243 1752.2,415.047 1753.25,383.487 1754.29,368.868 1755.33,364.028 
  1756.37,350.515 1757.42,349.35 1758.46,362.745 1759.5,384.271 1760.54,400.223 1761.59,418.253 1762.63,420.746 1763.67,429.848 1764.71,441.698 1765.75,450.895 
  1766.8,371.615 1767.84,391.831 1768.88,412.215 1769.92,402.244 1770.97,398.878 1772.01,404.98 1773.05,422.324 1774.09,422.306 1775.13,410.825 1776.18,378 
  1777.22,400.139 1778.26,411.964 1779.3,374.727 1780.35,397.236 1781.39,413.995 1782.43,426.798 1783.47,430.637 1784.52,441.1 1785.56,453.615 1786.6,460.726 
  1787.64,442.597 1788.68,448.032 1789.73,404.383 1790.77,423.398 1791.81,408.074 1792.85,426.233 1793.9,426.206 1794.94,438.953 1795.98,453.381 1797.02,441.698 
  1798.07,453.691 1799.11,442.797 1800.15,450.687 1801.19,463.095 1802.23,474.692 1803.28,470.581 1804.32,446.418 1805.36,459.353 1806.4,471.4 1807.45,477.666 
  1808.49,460.225 1809.53,472.171 1810.57,481.849 1811.61,486.478 1812.66,477.502 1813.7,485.686 1814.74,491.468 1815.78,498.587 1816.83,498.889 1817.87,505.128 
  1818.91,510.393 1819.95,492.071 1821,499.581 1822.04,498.421 1823.08,504.942 1824.12,275.355 1825.16,307.305 1826.21,334.986 1827.25,357.207 1828.29,293.951 
  1829.33,312.726 1830.38,341.425 1831.42,365.748 1832.46,389.025 1833.5,408.078 1834.54,338.253 1835.59,355.883 1836.63,368.549 1837.67,375.878 1838.71,396.836 
  1839.76,372.63 1840.8,392.86 1841.84,392.236 1842.88,405.433 1843.93,418.839 1844.97,422.297 1846.01,434.019 1847.05,441.627 1848.09,449.273 1849.14,439.889 
  1850.18,450.619 1851.22,457.783 1852.26,452.728 1853.31,464.906 1854.35,449.837 1855.39,453.494 1856.43,461.842 1857.48,464.15 1858.52,457.804 1859.56,468.76 
  1860.6,459.535 1861.64,446.409 1862.69,458.757 1863.73,469.487 1864.77,457.315 1865.81,469.682 1866.86,477.03 1867.9,486.647 1868.94,485.92 1869.98,478.619 
  1871.02,487.685 1872.07,463.833 1873.11,467.291 1874.15,472.951 1875.19,471.488 1876.24,447.09 1877.28,440.369 1878.32,434.553 1879.36,449.858 1880.41,435.212 
  1881.45,439.248 1882.49,405.78 1883.53,416.684 1884.57,434.192 1885.62,449.397 1886.66,462.661 1887.7,458.46 1888.74,470.411 1889.79,477.359 1890.83,421.148 
  1891.87,425.18 1892.91,440.146 1893.95,452.258 1895,456.179 1896.04,441.352 1897.08,449.784 1898.12,462.537 1899.17,469.991 1900.21,475.864 1901.25,475.011 
  1902.29,479.894 1903.34,458.691 1904.38,469.301 1905.42,414.4 1906.46,429.083 1907.5,442.618 1908.55,455.847 1909.59,408.791 1910.63,424.731 1911.67,429.533 
  1912.72,431.311 1913.76,432.798 1914.8,444.466 1915.84,453.62 1916.88,459.75 1917.93,452.705 1918.97,465.668 1920.01,476.219 1921.05,469.277 1922.1,428.759 
  1923.14,444.793 1924.18,429.359 1925.22,426.864 1926.27,425.586 1927.31,441.531 1928.35,450.868 1929.39,463.575 1930.43,469.918 1931.48,468.928 1932.52,443.865 
  1933.56,457.957 1934.6,469.746 1935.65,468.288 1936.69,479.112 1937.73,486.739 1938.77,494.911 1939.82,499.371 1940.86,474.601 1941.9,475.967 1942.94,482.402 
  1943.98,431.002 1945.03,444.741 1946.07,456.09 1947.11,463.288 1948.15,454.41 1949.2,361.086 1950.24,384.639 1951.28,405.364 1952.32,418.077 1953.36,432.061 
  1954.41,443.44 1955.45,441.884 1956.49,455.378 1957.53,456.955 1958.58,458.98 1959.62,470.825 1960.66,479.667 1961.7,482.377 1962.75,491.044 1963.79,435.156 
  1964.83,362.853 1965.87,343.317 1966.91,359.375 1967.96,350.255 1969,370.893 1970.04,393.178 1971.08,410.887 1972.13,427.95 1973.17,416.516 1974.21,389.599 
  1975.25,86.749 1976.29,129.672 1977.34,177.786 1978.38,219.273 1979.42,255.334 1980.46,256.426 1981.51,284.344 1982.55,312.524 1983.59,339.802 1984.63,350.281 
  1985.68,374.341 1986.72,394.239 1987.76,413.81 1988.8,431.556 1989.84,436.251 1990.89,443.374 1991.93,451.273 1992.97,457.907 1994.01,460.008 1995.06,457.264 
  1996.1,468.333 1997.14,478.959 1998.18,483.618 1999.23,492.372 2000.27,499.852 2001.31,465.291 2002.35,476.534 2003.39,482.703 2004.44,485.694 2005.48,493.372 
  2006.52,497.864 2007.56,493.365 2008.61,498.506 2009.65,498.462 2010.69,489.82 2011.73,497.621 2012.77,495.147 2013.82,501.644 2014.86,496.391 2015.9,489.904 
  2016.94,495.612 2017.99,501.419 2019.03,504.774 2020.07,503.028 2021.11,491.448 2022.16,497.322 2023.2,499.921 2024.24,501.354 2025.28,506.835 2026.32,511.858 
  2027.37,515.246 2028.41,505.28 2029.45,508.969 2030.49,496.05 2031.54,488.551 2032.58,486.034 2033.62,493.435 2034.66,489.4 2035.7,474.822 2036.75,483.783 
  2037.79,483.558 2038.83,490.282 2039.87,497.916 2040.92,501.573 2041.96,504.675 2043,485.876 2044.04,494.074 2045.09,500.631 2046.13,477.07 2047.17,485.976 
  2048.21,494.227 2049.25,491.45 2050.3,498.468 2051.34,503.423 2052.38,503.626 2053.42,505.179 2054.47,503.238 2055.51,508.035 2056.55,512.521 2057.59,498.416 
  2058.64,489.597 2059.68,495.932 2060.72,502.54 2061.76,508.478 2062.8,512.815 2063.85,517.016 2064.89,520.588 2065.93,519.933 2066.97,522.226 2068.02,516.779 
  2069.06,520.39 2070.1,523.042 2071.14,524.447 2072.18,518.223 2073.23,521.594 2074.27,515.319 2075.31,518.81 2076.35,511.279 2077.4,515.249 2078.44,518.864 
  2079.48,522.156 2080.52,522.46 2081.57,525.086 2082.61,526.102 2083.65,515.328 2084.69,519.092 2085.73,519.362 2086.78,522.05 2087.82,524.209 2088.86,523.675 
  2089.9,523.21 2090.95,525.042 2091.99,514.889 2093.03,517.93 2094.07,518.735 2095.11,509.395 2096.16,512.3 2097.2,507.858 2098.24,471.596 2099.28,476.962 
  2100.33,486.66 2101.37,494.775 2102.41,497.121 2103.45,501.338 2104.5,507.169 2105.54,512.299 2106.58,513.428 2107.62,512.715 2108.66,516.87 2109.71,505.458 
  2110.75,508.528 2111.79,512.578 2112.83,494.503 2113.88,500.793 2114.92,501.234 2115.96,477.943 2117,479.215 2118.04,488.237 2119.09,482.493 2120.13,485.791 
  2121.17,361.041 2122.21,271.052 2123.26,305.116 2124.3,335.09 2125.34,342.881 2126.38,364.294 2127.43,387.905 2128.47,408.801 2129.51,410.743 2130.55,427.407 
  2131.59,440.536 2132.64,451.763 2133.68,464.842 2134.72,476.174 2135.76,484.365 2136.81,485.239 2137.85,493.539 2138.89,496.133 2139.93,490.835 2140.98,490.973 
  2142.02,489.531 2143.06,496.931 2144.1,502.338 2145.14,508.303 2146.19,501.169 2147.23,507.299 2148.27,511.968 2149.31,502.46 2150.36,497.042 2151.4,503.624 
  2152.44,509.369 2153.48,507.269 2154.52,508.473 2155.57,513.046 2156.61,514.503 2157.65,516.842 2158.69,518.077 2159.74,506.068 2160.78,511.161 2161.82,515.563 
  2162.86,518.984 2163.91,518.955 2164.95,519.207 2165.99,521.957 2167.03,522.544 2168.07,524.649 2169.12,526.931 2170.16,526.878 2171.2,526.919 2172.24,520.112 
  2173.29,521.955 2174.33,524.592 2175.37,526.411 2176.41,525.44 2177.45,526.349 2178.5,512.295 2179.54,514.399 2180.58,517.805 2181.62,521.217 2182.67,523.054 
  2183.71,525.594 2184.75,527.04 2185.79,528.003 2186.84,529.681 2187.88,524.771 2188.92,526.945 2189.96,525.663 2191,527.716 2192.05,529.042 2193.09,530.482 
  2194.13,527.198 2195.17,528.983 2196.22,520.943 2197.26,404.295 2198.3,420.313 2199.34,428.974 2200.39,434.643 2201.43,449.621 2202.47,457.817 2203.51,465.535 
  2204.55,469.047 2205.6,479.711 2206.64,487.867 2207.68,495.321 2208.72,502.207 2209.77,506.741 2210.81,511.265 2211.85,515.778 2212.89,512.896 2213.93,511.551 
  2214.98,511.667 2216.02,515.634 2217.06,513.524 2218.1,511.529 2219.15,511.098 2220.19,515.006 2221.23,507.055 2222.27,505.489 2223.32,508.92 2224.36,512.148 
  2225.4,516.546 2226.44,520.213 2227.48,522.916 2228.53,525.125 2229.57,526.305 2230.61,527.761 2231.65,528.275 2232.7,527.201 2233.74,512.45 2234.78,515.468 
  2235.82,508.21 2236.86,509.04 2237.91,508.612 2238.95,502.511 2239.99,508.37 2241.03,513.19 2242.08,505.794 2243.12,509.977 2244.16,510.04 2245.2,514.735 
  2246.25,516.949 2247.29,519.098 2248.33,521.726 2249.37,522.011 2250.41,524.117 2251.46,516.584 2252.5,518.65 2253.54,521.933 2254.58,524.394 2255.63,526.675 
  2256.67,528.605 2257.71,530.051 2258.75,529.117 2259.79,530.604 2260.84,531.652 2261.88,525.617 2262.92,524.656 2263.96,516.39 2265.01,520.084 2266.05,458.723 
  2267.09,463.654 2268.13,472.032 2269.18,482.415 2270.22,490.836 2271.26,477.282 2272.3,469.87 2273.34,480.549 2274.39,487.381 2275.43,495.278 2276.47,502.021 
  2277.51,499.32 2278.56,504.87 2279.6,489.876 2280.64,492.613 2281.68,484.834 2282.73,471.881 2283.77,474.428 2284.81,484.299 2285.85,491.558 2286.89,479.878 
  2287.94,475.821 2288.98,485.628 2290.02,492.989 2291.06,495.713 
  "/>
</svg>
